<svg width="187" height="69" viewBox="0 0 187 69" fill="none" xmlns="http://www.w3.org/2000/svg">
<g clip-path="url(#clip0_676_78)">
<path d="M25.5928 20.6227C24.804 22.2742 23.564 23.6689 22.016 24.6454C20.4681 25.6221 18.6754 26.1406 16.8452 26.1415C9.80006 26.1415 6.65325 21.2686 6.65325 16.4426C6.65325 10.1491 11.9018 6.75568 16.8452 6.75568C18.6754 6.75645 20.4681 7.27505 22.016 8.2516C23.564 9.22817 24.804 10.6228 25.5928 12.2743L31.6985 9.92599C30.424 7.04923 28.3424 4.60396 25.7059 2.88663C23.0696 1.1693 19.9915 0.253649 16.8452 0.250705C12.5524 0.211813 8.40065 1.7828 5.20897 4.65388C3.57429 6.15749 2.27463 7.98853 1.39459 10.0278C0.514558 12.0671 0.0739107 14.2688 0.101301 16.4896C0.101301 25.8831 7.14641 32.7403 16.8452 32.7403C20.002 32.7294 23.0874 31.7998 25.7249 30.065C28.3625 28.3303 30.438 25.8654 31.6985 22.9712L25.5928 20.6227Z" fill="white"/>
<path d="M101.62 25.5314L107.362 7.15543L113.104 25.5314H101.62ZM120.407 25.5314C120.294 25.5312 120.183 25.4946 120.092 25.4268C120.001 25.3592 119.935 25.2641 119.902 25.1556L112.188 0.615234H102.536L94.8686 25.1439C94.8359 25.2524 94.7691 25.3475 94.6783 25.4152C94.5874 25.4828 94.4771 25.5194 94.3637 25.5196H90.9351V32.0716H123.812V25.5196L120.407 25.5314Z" fill="white"/>
<path d="M136.752 18.9771L140.451 7.12955L144.15 18.9771H136.752ZM148.623 32.0457H155.105L145.277 0.589355H135.625L125.797 32.0339H132.279C132.389 32.0339 132.496 31.9985 132.585 31.933C132.673 31.8675 132.739 31.7753 132.771 31.6699L134.581 25.8813C134.615 25.7749 134.682 25.6824 134.773 25.617C134.864 25.5516 134.974 25.5167 135.085 25.5173H145.817C145.928 25.5167 146.038 25.5516 146.129 25.617C146.22 25.6824 146.287 25.7749 146.321 25.8813L148.131 31.6699C148.163 31.7753 148.229 31.8675 148.317 31.933C148.406 31.9985 148.513 32.0339 148.623 32.0339" fill="white"/>
<path d="M49.0678 12.3859H40.2849C40.1468 12.3828 40.0155 12.3258 39.9189 12.2271C39.8223 12.1283 39.7682 11.9957 39.7682 11.8576V7.63051C39.7682 7.49239 39.8223 7.35972 39.9189 7.26096C40.0155 7.16219 40.1468 7.10518 40.2849 7.10211H49.1617C49.5204 7.10301 49.8752 7.17729 50.2041 7.32033C50.533 7.46339 50.8292 7.67219 51.0745 7.93394C51.3197 8.19569 51.5088 8.50482 51.6301 8.84235C51.7515 9.17988 51.8026 9.53868 51.7802 9.89666C51.7208 10.5714 51.408 11.1985 50.9047 11.6517C50.4014 12.1049 49.745 12.3505 49.0678 12.339M49.1617 0.597168H33.2163V32.0535H39.7682V19.4663C39.7682 19.3281 39.8223 19.1955 39.9189 19.0967C40.0155 18.998 40.1468 18.9409 40.2849 18.9379H48.9856C51.4092 18.967 53.7483 18.0476 55.5033 16.376C57.2584 14.7043 58.2904 12.4128 58.379 9.99062C58.4056 8.76855 58.1882 7.55345 57.7395 6.4164C57.2908 5.27936 56.6199 4.24321 55.766 3.36855C54.9121 2.49388 53.8924 1.79826 52.7665 1.32239C51.6405 0.846537 50.431 0.600003 49.2087 0.597168" fill="white"/>
<path d="M75.8366 6.65778C77.7101 6.66055 79.5427 7.20523 81.1135 8.22609C82.6845 9.24696 83.9265 10.7004 84.69 12.4113H66.4314C67.2814 10.6531 68.6186 9.17618 70.2839 8.15618C71.9492 7.13619 73.8725 6.61609 75.825 6.65778M91.8642 18.9397C91.9963 18.085 92.0629 17.2214 92.0639 16.3566C92.0607 12.0496 90.3493 7.91973 87.3049 4.87315C84.2605 1.82655 80.1318 0.112078 75.825 0.105859C71.5313 0.0623788 67.378 1.63398 64.1887 4.50905C62.5528 6.01478 61.2517 7.84759 60.3697 9.88861C59.4877 11.9297 59.0447 14.1333 59.0693 16.3566C59.0693 25.75 66.1144 32.5955 75.825 32.5955C78.5659 32.5931 81.2617 31.8975 83.6616 30.5733C86.0615 29.2492 88.0875 27.3395 89.5511 25.022L83.1988 22.6736C82.2883 23.7399 81.1578 24.5964 79.8849 25.1842C78.6121 25.772 77.2269 26.0771 75.825 26.0788C70.0479 26.0788 66.8894 22.8145 65.9383 18.975H91.8642V18.9397Z" fill="white"/>
<path d="M107.544 62.2175C100.499 62.2175 97.3517 57.3446 97.3517 52.5188C97.3517 46.2252 102.6 42.8318 107.544 42.8318C108.845 42.7865 110.142 43.0036 111.358 43.4704C112.573 43.9371 113.682 44.6438 114.619 45.5483C115.555 46.4528 116.3 47.5368 116.809 48.7353C117.318 49.9339 117.58 51.2226 117.58 52.5246C117.58 53.8266 117.318 55.1154 116.809 56.314C116.3 57.5126 115.555 58.5964 114.619 59.5009C113.682 60.4054 112.573 61.1121 111.358 61.5789C110.142 62.0456 108.845 62.2627 107.544 62.2175ZM107.544 36.2798C103.251 36.241 99.0992 37.812 95.9075 40.683C94.2747 42.188 92.9761 44.0193 92.0962 46.0583C91.2162 48.0971 90.7746 50.2982 90.7999 52.5188C90.7999 61.9122 97.845 68.7694 107.544 68.7694C109.714 68.8279 111.873 68.4508 113.895 67.6606C115.917 66.8705 117.76 65.6833 119.316 64.169C120.872 62.6548 122.107 60.8442 122.952 58.8442C123.796 56.8443 124.232 54.6955 124.232 52.5246C124.232 50.3538 123.796 48.205 122.952 46.205C122.107 44.2051 120.872 42.3945 119.316 40.8803C117.76 39.3661 115.917 38.1788 113.895 37.3886C111.873 36.5986 109.714 36.2215 107.544 36.2798Z" fill="white"/>
<path d="M79.8991 61.6705H70.987C70.8489 61.6674 70.7176 61.6104 70.621 61.5116C70.5245 61.4128 70.4703 61.2802 70.4704 61.1421V55.6234C70.4704 55.4865 70.5248 55.355 70.6217 55.2581C70.7186 55.1612 70.85 55.1068 70.987 55.1068H79.993C80.4503 55.1063 80.9025 55.2016 81.3208 55.3863C81.7391 55.5711 82.1139 55.8415 82.4214 56.1798C82.7288 56.5183 82.962 56.9174 83.106 57.3513C83.25 57.7854 83.3014 58.2446 83.2572 58.6997C83.1643 59.5227 82.7695 60.2819 82.1492 60.8306C81.5289 61.3794 80.7273 61.6786 79.8991 61.6705ZM78.0321 43.318C78.3908 43.3188 78.7456 43.3932 79.0745 43.5362C79.4034 43.6793 79.6995 43.888 79.9448 44.1498C80.19 44.4116 80.3792 44.7207 80.5005 45.0582C80.622 45.3958 80.673 45.7546 80.6505 46.1125C80.5913 46.7873 80.2784 47.4143 79.7751 47.8675C79.2718 48.3207 78.6154 48.5663 77.9383 48.5548H70.987C70.8489 48.5517 70.7176 48.4947 70.621 48.396C70.5245 48.2972 70.4703 48.1646 70.4704 48.0265V43.8464C70.4703 43.7083 70.5245 43.5756 70.621 43.4769C70.7176 43.3781 70.8489 43.3211 70.987 43.318H78.0321ZM85.9462 50.5627C86.7601 49.1697 87.192 47.5865 87.1985 45.973C87.2049 44.3597 86.7857 42.7731 85.9828 41.3736C85.18 39.974 84.0222 38.8111 82.6262 38.002C81.2303 37.1931 79.6456 36.7667 78.0321 36.7661H63.9419V68.2107H80.0165C82.0643 68.2012 84.0582 67.5522 85.7192 66.3544C87.3803 65.1566 88.6258 63.4698 89.2815 61.5298C89.9373 59.5897 89.9706 57.4932 89.3769 55.5333C88.783 53.5733 87.5918 51.8478 85.9696 50.598" fill="white"/>
<path d="M55.4852 56.7075C54.697 58.3604 53.4574 59.7568 51.9096 60.7353C50.3618 61.7138 48.5688 62.2348 46.7375 62.2381C39.6924 62.2381 36.5339 57.3652 36.5339 52.5392C36.5339 46.2457 41.7943 42.8405 46.7375 42.8405C48.5688 42.8437 50.3618 43.3646 51.9096 44.3433C53.4574 45.3218 54.697 46.718 55.4852 48.3709L61.591 46.0225C60.3182 43.1436 58.2374 40.6958 55.6009 38.9763C52.9643 37.2569 49.8853 36.3395 46.7375 36.3356C42.4429 36.2988 38.2908 37.8741 35.1015 40.7505C33.4646 42.253 32.1628 44.0836 31.2807 46.1229C30.3986 48.1623 29.9562 50.3644 29.982 52.5862C29.982 61.9797 37.0271 68.8369 46.7375 68.8369C49.8853 68.8329 52.9643 67.9155 55.6009 66.1961C58.2374 64.4766 60.3182 62.0288 61.591 59.1499L55.4852 56.7075Z" fill="white"/>
<path d="M27.3563 61.7324H4.57715V68.2726H27.3563V61.7324Z" fill="white"/>
<path d="M186.383 36.7554H178.528L172.082 46.5363L165.624 36.7554H157.768L167.96 52.2428C168.017 52.3279 168.048 52.428 168.048 52.5305C168.048 52.6329 168.017 52.733 167.96 52.8181L157.768 68.2469H165.624L172.082 58.4777L178.528 68.2469H186.383L176.191 52.8181C176.135 52.733 176.104 52.6329 176.104 52.5305C176.104 52.428 176.135 52.3279 176.191 52.2428L186.383 36.7554Z" fill="white"/>
<path d="M144.885 37.0489L132.344 61.8359V36.7554H125.793V68.1999H136.102C136.199 68.2004 136.293 68.1743 136.376 68.1246C136.459 68.0749 136.527 68.0035 136.572 67.9181L149.03 43.2603V68.1764H155.582V36.7554H145.32C145.222 36.7574 145.126 36.7857 145.044 36.8373C144.961 36.889 144.894 36.9621 144.85 37.0489" fill="white"/>
</g>
<defs>
<clipPath id="clip0_676_78">
<rect width="186.475" height="68.925" fill="white"/>
</clipPath>
</defs>
</svg>
