<svg width="14" height="14" viewBox="0 0 14 14" fill="none" xmlns="http://www.w3.org/2000/svg">
<path d="M6.73926 0C10.4612 0 13.4785 3.01727 13.4785 6.73926C13.4783 10.461 10.4611 13.4785 6.73926 13.4785C3.01742 13.4785 0.000243262 10.461 0 6.73926C0 3.01727 3.01727 0 6.73926 0ZM6.73926 9.7334C6.46823 9.7334 6.23439 9.82686 6.03809 10.0137C5.85106 10.2007 5.75684 10.4353 5.75684 10.7158C5.75692 10.9868 5.85115 11.2207 6.03809 11.417C6.23442 11.6039 6.46818 11.6973 6.73926 11.6973C7.01042 11.6973 7.23975 11.604 7.42676 11.417C7.62303 11.2207 7.72061 10.9868 7.7207 10.7158C7.7207 10.4353 7.62313 10.2007 7.42676 10.0137C7.23976 9.82672 7.01037 9.73341 6.73926 9.7334ZM6.08008 1.78027V8.51367H7.39844V1.78027H6.08008Z" fill="#272727"/>
</svg>
