<svg width="36" height="35" viewBox="0 0 36 35" fill="none" xmlns="http://www.w3.org/2000/svg">
<circle cx="17.5" cy="17.5" r="17.5" fill="white"/>
<path d="M7.36503 17.2601C7.36503 17.2601 15.5216 14.1046 18.3504 12.9935C19.4348 12.5491 23.1123 11.1269 23.1123 11.1269C23.1123 11.1269 24.8096 10.5047 24.6682 12.0158C24.621 12.638 24.2438 14.8157 23.8667 17.1712C23.3009 20.5045 22.688 24.1488 22.688 24.1488C22.688 24.1488 22.5937 25.171 21.7922 25.3488C20.9907 25.5265 19.6705 24.7266 19.4348 24.5488C19.2462 24.4155 15.8987 22.4155 14.6729 21.4377C14.3428 21.1711 13.9657 20.6378 14.72 20.0156C16.4173 18.5489 18.4447 16.7268 19.6705 15.5713C20.2363 15.0379 20.802 13.7935 18.4447 15.3046C15.0972 17.4823 11.7969 19.5267 11.7969 19.5267C11.7969 19.5267 11.0425 19.9711 9.62811 19.5711C8.21364 19.1712 6.56347 18.6378 6.56347 18.6378C6.56347 18.6378 5.432 17.9712 7.36503 17.2601Z" fill="#231F20"/>
</svg>
