<svg width="19" height="15" viewBox="0 0 19 15" fill="none" xmlns="http://www.w3.org/2000/svg">
<path d="M1.13066 6.26007C1.13066 6.26007 9.28719 3.10463 12.116 1.99352C13.2004 1.54911 16.8779 0.126888 16.8779 0.126888C16.8779 0.126888 18.5753 -0.495281 18.4338 1.01576C18.3866 1.63799 18.0095 3.81568 17.6323 6.17119C17.0665 9.50446 16.4536 13.1488 16.4536 13.1488C16.4536 13.1488 16.3593 14.171 15.5578 14.3488C14.7563 14.5265 13.4361 13.7266 13.2004 13.5488C13.0118 13.4155 9.66435 11.4155 8.43852 10.4377C8.10847 10.1711 7.73132 9.63781 8.48563 9.01558C10.183 7.54894 12.2103 5.72678 13.4361 4.57126C14.0019 4.03792 14.5677 2.79351 12.2103 4.30456C8.86286 6.48231 5.56253 8.5267 5.56253 8.5267C5.56253 8.5267 4.80815 8.97111 3.39374 8.57111C1.97926 8.17117 0.329099 7.63782 0.329099 7.63782C0.329099 7.63782 -0.802375 6.97118 1.13066 6.26007Z" fill="white"/>
</svg>
