<svg width="36" height="35" viewBox="0 0 36 35" fill="none" xmlns="http://www.w3.org/2000/svg">
<circle cx="17.5" cy="17.5" r="17.5" fill="white"/>
<path d="M18.7635 25C11.4628 25 7.29851 19.7447 7.125 11H10.7821C10.9022 17.4184 13.5983 20.1371 15.7338 20.6977V11H19.1773V16.5355C21.2861 16.2973 23.5017 13.7748 24.2491 11H27.6926C27.411 12.4391 26.8495 13.8017 26.0434 15.0025C25.2373 16.2033 24.2039 17.2166 23.0078 17.979C24.343 18.6756 25.5222 19.6615 26.4678 20.8717C27.4134 22.082 28.1038 23.489 28.4934 25H24.7029C24.3531 23.6876 23.6422 22.5128 22.6592 21.6228C21.6763 20.7328 20.465 20.1673 19.1773 19.997V25H18.7635Z" fill="#231F20"/>
</svg>
