<svg width="22" height="14" viewBox="0 0 22 14" fill="none" xmlns="http://www.w3.org/2000/svg">
<path d="M11.6385 14C4.33775 14 0.17351 8.74474 0 0H3.65706C3.77718 6.41842 6.47326 9.13714 8.60876 9.6977V0H12.0523V5.53553C14.1611 5.2973 16.3767 2.77477 17.1241 0H20.5676C20.286 1.43908 19.7245 2.80165 18.9184 4.0025C18.1123 5.20335 17.0789 6.21663 15.8828 6.97898C17.218 7.67555 18.3972 8.6615 19.3428 9.87175C20.2884 11.082 20.9788 12.489 21.3684 14H17.5779C17.2281 12.6876 16.5172 11.5128 15.5342 10.6228C14.5513 9.73284 13.34 9.16727 12.0523 8.997V14H11.6385Z" fill="white"/>
</svg>
