<svg class="hero__bg hero__bg--arc" width="1291" height="1184" viewBox="0 0 1291 1184" fill="none" xmlns="http://www.w3.org/2000/svg" aria-hidden="true">
<g filter="url(#filter1_d_219_207)" style="mix-blend-mode:plus-lighter">
<path d="M64.6086 685.591C-30.4679 384.68 154.152 101.453 477.074 53.0514C799.996 4.65014 1138.81 209.423 1233.88 510.334C1328.96 811.246 1144.34 1094.47 821.417 1142.88C498.495 1191.28 159.685 986.503 64.6086 685.591Z" stroke="#FF8C32" stroke-width="2.30153" shape-rendering="crispEdges"/>
</g>
<g filter="url(#filter2_d_219_207)" style="mix-blend-mode:plus-lighter">
<path d="M75.6658 683.931C-11.2923 408.714 174.844 146.945 491.739 99.447C808.635 51.949 1135.88 236.771 1222.83 511.987C1309.79 787.204 1123.66 1048.97 806.762 1096.47C489.866 1143.97 162.624 959.148 75.6658 683.931Z" stroke="#235AFF" stroke-width="2.30153" shape-rendering="crispEdges"/>
</g>
<g filter="url(#filter3_d_219_207)" style="mix-blend-mode:plus-lighter">
<path d="M62.7313 635.68C0.868072 354.459 213.13 109.383 537.187 88.5405C861.244 67.6987 1173.9 279.014 1235.77 560.236C1297.63 841.458 1085.37 1086.53 761.311 1107.38C437.254 1128.22 124.595 916.902 62.7313 635.68Z" stroke="#235AFF" stroke-width="2.30153" shape-rendering="crispEdges"/>
</g>
<g filter="url(#filter4_d_219_207)" style="mix-blend-mode:plus-lighter">
<path d="M1233.92 510.31C1329.31 812.228 1144.95 1096.26 822.028 1144.67C499.109 1193.07 160.041 987.485 64.6458 685.567C-30.7489 383.649 153.618 99.6113 476.537 51.2106C799.456 2.80989 1138.52 208.392 1233.92 510.31Z" stroke="#FF8C32" stroke-width="2.30153" shape-rendering="crispEdges"/>
</g>
<g filter="url(#filter5_d_219_207)" style="mix-blend-mode:plus-lighter">
<path d="M1222.87 511.965C1309.24 785.334 1122.65 1045.62 805.744 1093.12C488.841 1140.61 162.077 957.277 75.7019 683.908C-10.6725 410.539 175.925 150.256 492.828 102.756C809.731 55.2574 1136.5 238.595 1222.87 511.965Z" stroke="#235AFF" stroke-width="2.30153" shape-rendering="crispEdges"/>
</g>
<g filter="url(#filter6_d_219_207)" style="mix-blend-mode:plus-lighter">
<path d="M1235.8 560.219C1297.66 841.44 1085.4 1086.52 761.346 1107.36C437.289 1128.2 124.63 916.884 62.7662 635.663C0.902882 354.441 213.164 109.364 537.222 88.5222C861.279 67.6806 1173.94 278.997 1235.8 560.219Z" stroke="#235AFF" stroke-width="2.30153" shape-rendering="crispEdges"/>
</g>
<g filter="url(#filter7_d_219_207)" style="mix-blend-mode:plus-lighter">
<path d="M57.0447 673.292C-38.0317 372.381 146.588 89.1535 469.51 40.7521C792.432 -7.64918 1131.24 197.124 1226.32 498.035C1321.4 798.947 1136.78 1082.17 813.853 1130.58C490.931 1178.98 152.121 974.204 57.0447 673.292Z" stroke="#7339C4" stroke-width="2.30153" shape-rendering="crispEdges"/>
</g>
<g filter="url(#filter8_d_219_207)" style="mix-blend-mode:plus-lighter">
<path d="M68.1 671.636C-18.8581 396.419 167.278 134.649 484.173 87.1515C801.069 39.6535 1128.31 224.475 1215.27 499.692C1302.23 774.909 1116.09 1036.68 799.196 1084.18C482.3 1131.67 155.058 946.852 68.1 671.636Z" stroke="#325EFF" stroke-width="2.30153" shape-rendering="crispEdges"/>
</g>
<g filter="url(#filter9_d_219_207)" style="mix-blend-mode:plus-lighter">
<path d="M55.1664 623.383C-6.69679 342.161 205.565 97.0851 529.622 76.2431C853.679 55.4012 1166.34 266.717 1228.2 547.938C1290.06 829.16 1077.8 1074.24 753.746 1095.08C429.689 1115.92 117.03 904.604 55.1664 623.383Z" stroke="#325EFF" stroke-width="2.30153" shape-rendering="crispEdges"/>
</g>
<g filter="url(#filter10_d_219_207)" style="mix-blend-mode:plus-lighter">
<path d="M1226.35 498.015C1321.75 799.932 1137.38 1083.97 814.463 1132.37C491.544 1180.77 152.476 975.189 57.0809 673.272C-38.3138 371.354 146.053 87.3158 468.972 38.915C791.891 -9.48564 1130.96 196.097 1226.35 498.015Z" stroke="#7339C4" stroke-width="2.30153" shape-rendering="crispEdges"/>
</g>
<g filter="url(#filter11_d_219_207)" style="mix-blend-mode:plus-lighter">
<path d="M1215.3 499.669C1301.68 773.038 1115.08 1033.32 798.178 1080.82C481.276 1128.32 154.511 944.982 68.1361 671.613C-18.2383 398.244 168.359 137.96 485.262 90.461C802.165 42.9619 1128.93 226.3 1215.3 499.669Z" stroke="#325EFF" stroke-width="2.30153" shape-rendering="crispEdges"/>
</g>
<g filter="url(#filter12_d_219_207)" style="mix-blend-mode:plus-lighter">
<path d="M1228.24 547.921C1290.1 829.143 1077.84 1074.22 753.781 1095.06C429.724 1115.9 117.065 904.587 55.2013 623.365C-6.66198 342.144 205.6 97.0667 529.657 76.2248C853.714 55.3832 1166.37 266.7 1228.24 547.921Z" stroke="#325EFF" stroke-width="2.30153" shape-rendering="crispEdges"/>
</g>
<defs>
<filter id="filter1_d_219_207" x="33.8299" y="44.8575" width="1230.83" height="1115.42" filterUnits="userSpaceOnUse" color-interpolation-filters="sRGB">
<feFlood flood-opacity="0" result="BackgroundImageFix"/>
<feColorMatrix in="SourceAlpha" type="matrix" values="0 0 0 0 0 0 0 0 0 0 0 0 0 0 0 0 0 0 127 0" result="hardAlpha"/>
<feOffset dy="4.60305"/>
<feGaussianBlur stdDeviation="2.30153"/>
<feComposite in2="hardAlpha" operator="out"/>
<feColorMatrix type="matrix" values="0 0 0 0 0 0 0 0 0 0 0 0 0 0 0 0 0 0 0.25 0"/>
<feBlend mode="normal" in2="BackgroundImageFix" result="effect1_dropShadow_219_207"/>
<feBlend mode="normal" in="SourceGraphic" in2="effect1_dropShadow_219_207" result="shape"/>
</filter>
<filter id="filter2_d_219_207" x="48.4877" y="90.8944" width="1201.53" height="1023.34" filterUnits="userSpaceOnUse" color-interpolation-filters="sRGB">
<feFlood flood-opacity="0" result="BackgroundImageFix"/>
<feColorMatrix in="SourceAlpha" type="matrix" values="0 0 0 0 0 0 0 0 0 0 0 0 0 0 0 0 0 0 127 0" result="hardAlpha"/>
<feOffset dy="4.60305"/>
<feGaussianBlur stdDeviation="2.30153"/>
<feComposite in2="hardAlpha" operator="out"/>
<feColorMatrix type="matrix" values="0 0 0 0 0 0 0 0 0 0 0 0 0 0 0 0 0 0 0.25 0"/>
<feBlend mode="normal" in2="BackgroundImageFix" result="effect1_dropShadow_219_207"/>
<feBlend mode="normal" in="SourceGraphic" in2="effect1_dropShadow_219_207" result="shape"/>
</filter>
<filter id="filter3_d_219_207" x="46.2328" y="85.9952" width="1206.03" height="1033.14" filterUnits="userSpaceOnUse" color-interpolation-filters="sRGB">
<feFlood flood-opacity="0" result="BackgroundImageFix"/>
<feColorMatrix in="SourceAlpha" type="matrix" values="0 0 0 0 0 0 0 0 0 0 0 0 0 0 0 0 0 0 127 0" result="hardAlpha"/>
<feOffset dy="4.60305"/>
<feGaussianBlur stdDeviation="2.30153"/>
<feComposite in2="hardAlpha" operator="out"/>
<feColorMatrix type="matrix" values="0 0 0 0 0 0 0 0 0 0 0 0 0 0 0 0 0 0 0.25 0"/>
<feBlend mode="normal" in2="BackgroundImageFix" result="effect1_dropShadow_219_207"/>
<feBlend mode="normal" in="SourceGraphic" in2="effect1_dropShadow_219_207" result="shape"/>
</filter>
<filter id="filter4_d_219_207" x="33.7038" y="43.0397" width="1231.16" height="1119.01" filterUnits="userSpaceOnUse" color-interpolation-filters="sRGB">
<feFlood flood-opacity="0" result="BackgroundImageFix"/>
<feColorMatrix in="SourceAlpha" type="matrix" values="0 0 0 0 0 0 0 0 0 0 0 0 0 0 0 0 0 0 127 0" result="hardAlpha"/>
<feOffset dy="4.60305"/>
<feGaussianBlur stdDeviation="2.30153"/>
<feComposite in2="hardAlpha" operator="out"/>
<feColorMatrix type="matrix" values="0 0 0 0 0 0 0 0 0 0 0 0 0 0 0 0 0 0 0.25 0"/>
<feBlend mode="normal" in2="BackgroundImageFix" result="effect1_dropShadow_219_207"/>
<feBlend mode="normal" in="SourceGraphic" in2="effect1_dropShadow_219_207" result="shape"/>
</filter>
<filter id="filter5_d_219_207" x="48.8013" y="94.1557" width="1200.97" height="1016.77" filterUnits="userSpaceOnUse" color-interpolation-filters="sRGB">
<feFlood flood-opacity="0" result="BackgroundImageFix"/>
<feColorMatrix in="SourceAlpha" type="matrix" values="0 0 0 0 0 0 0 0 0 0 0 0 0 0 0 0 0 0 127 0" result="hardAlpha"/>
<feOffset dy="4.60305"/>
<feGaussianBlur stdDeviation="2.30153"/>
<feComposite in2="hardAlpha" operator="out"/>
<feColorMatrix type="matrix" values="0 0 0 0 0 0 0 0 0 0 0 0 0 0 0 0 0 0 0.25 0"/>
<feBlend mode="normal" in2="BackgroundImageFix" result="effect1_dropShadow_219_207"/>
<feBlend mode="normal" in="SourceGraphic" in2="effect1_dropShadow_219_207" result="shape"/>
</filter>
<filter id="filter6_d_219_207" x="46.266" y="85.9778" width="1206.03" height="1033.14" filterUnits="userSpaceOnUse" color-interpolation-filters="sRGB">
<feFlood flood-opacity="0" result="BackgroundImageFix"/>
<feColorMatrix in="SourceAlpha" type="matrix" values="0 0 0 0 0 0 0 0 0 0 0 0 0 0 0 0 0 0 127 0" result="hardAlpha"/>
<feOffset dy="4.60305"/>
<feGaussianBlur stdDeviation="2.30153"/>
<feComposite in2="hardAlpha" operator="out"/>
<feColorMatrix type="matrix" values="0 0 0 0 0 0 0 0 0 0 0 0 0 0 0 0 0 0 0.25 0"/>
<feBlend mode="normal" in2="BackgroundImageFix" result="effect1_dropShadow_219_207"/>
<feBlend mode="normal" in="SourceGraphic" in2="effect1_dropShadow_219_207" result="shape"/>
</filter>
<filter id="filter7_d_219_207" x="26.266" y="32.5581" width="1230.83" height="1115.42" filterUnits="userSpaceOnUse" color-interpolation-filters="sRGB">
<feFlood flood-opacity="0" result="BackgroundImageFix"/>
<feColorMatrix in="SourceAlpha" type="matrix" values="0 0 0 0 0 0 0 0 0 0 0 0 0 0 0 0 0 0 127 0" result="hardAlpha"/>
<feOffset dy="4.60305"/>
<feGaussianBlur stdDeviation="2.30153"/>
<feComposite in2="hardAlpha" operator="out"/>
<feColorMatrix type="matrix" values="0 0 0 0 0 0 0 0 0 0 0 0 0 0 0 0 0 0 0.25 0"/>
<feBlend mode="normal" in2="BackgroundImageFix" result="effect1_dropShadow_219_207"/>
<feBlend mode="normal" in="SourceGraphic" in2="effect1_dropShadow_219_207" result="shape"/>
</filter>
<filter id="filter8_d_219_207" x="40.9219" y="78.5989" width="1201.53" height="1023.34" filterUnits="userSpaceOnUse" color-interpolation-filters="sRGB">
<feFlood flood-opacity="0" result="BackgroundImageFix"/>
<feColorMatrix in="SourceAlpha" type="matrix" values="0 0 0 0 0 0 0 0 0 0 0 0 0 0 0 0 0 0 127 0" result="hardAlpha"/>
<feOffset dy="4.60305"/>
<feGaussianBlur stdDeviation="2.30153"/>
<feComposite in2="hardAlpha" operator="out"/>
<feColorMatrix type="matrix" values="0 0 0 0 0 0 0 0 0 0 0 0 0 0 0 0 0 0 0.25 0"/>
<feBlend mode="normal" in2="BackgroundImageFix" result="effect1_dropShadow_219_207"/>
<feBlend mode="normal" in="SourceGraphic" in2="effect1_dropShadow_219_207" result="shape"/>
</filter>
<filter id="filter9_d_219_207" x="38.6679" y="73.6978" width="1206.03" height="1033.14" filterUnits="userSpaceOnUse" color-interpolation-filters="sRGB">
<feFlood flood-opacity="0" result="BackgroundImageFix"/>
<feColorMatrix in="SourceAlpha" type="matrix" values="0 0 0 0 0 0 0 0 0 0 0 0 0 0 0 0 0 0 127 0" result="hardAlpha"/>
<feOffset dy="4.60305"/>
<feGaussianBlur stdDeviation="2.30153"/>
<feComposite in2="hardAlpha" operator="out"/>
<feColorMatrix type="matrix" values="0 0 0 0 0 0 0 0 0 0 0 0 0 0 0 0 0 0 0.25 0"/>
<feBlend mode="normal" in2="BackgroundImageFix" result="effect1_dropShadow_219_207"/>
<feBlend mode="normal" in="SourceGraphic" in2="effect1_dropShadow_219_207" result="shape"/>
</filter>
<filter id="filter10_d_219_207" x="26.139" y="30.7442" width="1231.16" height="1119.01" filterUnits="userSpaceOnUse" color-interpolation-filters="sRGB">
<feFlood flood-opacity="0" result="BackgroundImageFix"/>
<feColorMatrix in="SourceAlpha" type="matrix" values="0 0 0 0 0 0 0 0 0 0 0 0 0 0 0 0 0 0 127 0" result="hardAlpha"/>
<feOffset dy="4.60305"/>
<feGaussianBlur stdDeviation="2.30153"/>
<feComposite in2="hardAlpha" operator="out"/>
<feColorMatrix type="matrix" values="0 0 0 0 0 0 0 0 0 0 0 0 0 0 0 0 0 0 0.25 0"/>
<feBlend mode="normal" in2="BackgroundImageFix" result="effect1_dropShadow_219_207"/>
<feBlend mode="normal" in="SourceGraphic" in2="effect1_dropShadow_219_207" result="shape"/>
</filter>
<filter id="filter11_d_219_207" x="41.2355" y="81.8602" width="1200.97" height="1016.77" filterUnits="userSpaceOnUse" color-interpolation-filters="sRGB">
<feFlood flood-opacity="0" result="BackgroundImageFix"/>
<feColorMatrix in="SourceAlpha" type="matrix" values="0 0 0 0 0 0 0 0 0 0 0 0 0 0 0 0 0 0 127 0" result="hardAlpha"/>
<feOffset dy="4.60305"/>
<feGaussianBlur stdDeviation="2.30153"/>
<feComposite in2="hardAlpha" operator="out"/>
<feColorMatrix type="matrix" values="0 0 0 0 0 0 0 0 0 0 0 0 0 0 0 0 0 0 0.25 0"/>
<feBlend mode="normal" in2="BackgroundImageFix" result="effect1_dropShadow_219_207"/>
<feBlend mode="normal" in="SourceGraphic" in2="effect1_dropShadow_219_207" result="shape"/>
</filter>
<filter id="filter12_d_219_207" x="38.7012" y="73.6804" width="1206.03" height="1033.14" filterUnits="userSpaceOnUse" color-interpolation-filters="sRGB">
<feFlood flood-opacity="0" result="BackgroundImageFix"/>
<feColorMatrix in="SourceAlpha" type="matrix" values="0 0 0 0 0 0 0 0 0 0 0 0 0 0 0 0 0 0 127 0" result="hardAlpha"/>
<feOffset dy="4.60305"/>
<feGaussianBlur stdDeviation="2.30153"/>
<feComposite in2="hardAlpha" operator="out"/>
<feColorMatrix type="matrix" values="0 0 0 0 0 0 0 0 0 0 0 0 0 0 0 0 0 0 0.25 0"/>
<feBlend mode="normal" in2="BackgroundImageFix" result="effect1_dropShadow_219_207"/>
<feBlend mode="normal" in="SourceGraphic" in2="effect1_dropShadow_219_207" result="shape"/>
</filter>
</defs>
</svg>
