<svg class="hero__bg hero__bg--oval" width="972" height="891" viewBox="0 0 972 891" fill="none" xmlns="http://www.w3.org/2000/svg" aria-hidden="true">
<g filter="url(#filter1_d_219_165)" style="mix-blend-mode:plus-lighter">
<path d="M48.6492 516.088C-22.9245 289.562 116.057 76.3496 359.152 39.9131C602.248 3.47665 857.302 157.629 928.876 384.155C1000.45 610.681 861.469 823.893 618.373 860.33C375.278 896.766 120.223 742.614 48.6492 516.088Z" stroke="#FF8C32" stroke-width="1.73206" shape-rendering="crispEdges"/>
</g>
<g filter="url(#filter2_d_219_165)" style="mix-blend-mode:plus-lighter">
<path d="M56.9724 514.839C-8.48947 307.656 131.633 110.597 370.191 74.8401C608.75 39.0836 855.097 178.217 920.559 385.4C986.021 592.583 845.898 789.643 607.34 825.399C368.781 861.156 122.434 722.022 56.9724 514.839Z" stroke="#235AFF" stroke-width="1.73206" shape-rendering="crispEdges"/>
</g>
<g filter="url(#filter3_d_219_165)" style="mix-blend-mode:plus-lighter">
<path d="M47.2364 478.515C0.666098 266.812 160.456 82.3194 404.406 66.6297C648.356 50.94 883.725 210.018 930.296 421.721C976.866 633.424 817.076 817.918 573.126 833.608C329.176 849.297 93.807 690.219 47.2364 478.515Z" stroke="#235AFF" stroke-width="1.73206" shape-rendering="crispEdges"/>
</g>
<g filter="url(#filter4_d_219_165)" style="mix-blend-mode:plus-lighter">
<path d="M928.891 384.162C1000.7 611.446 861.913 825.268 618.82 861.704C375.727 898.14 120.477 743.379 48.6644 516.095C-23.1486 288.812 115.643 74.9893 358.735 38.5533C601.828 2.11724 857.078 156.879 928.891 384.162Z" stroke="#FF8C32" stroke-width="1.73206" shape-rendering="crispEdges"/>
</g>
<g filter="url(#filter5_d_219_165)" style="mix-blend-mode:plus-lighter">
<path d="M920.574 385.408C985.596 591.2 845.126 787.14 606.562 822.897C367.998 858.654 122.009 720.639 56.9869 514.847C-8.03566 309.055 132.435 113.114 370.999 77.357C609.564 41.5998 855.551 179.616 920.574 385.408Z" stroke="#235AFF" stroke-width="1.73206" shape-rendering="crispEdges"/>
</g>
<g filter="url(#filter6_d_219_165)" style="mix-blend-mode:plus-lighter">
<path d="M930.309 421.732C976.879 633.435 817.089 817.928 573.14 833.618C329.19 849.307 93.8207 690.229 47.2499 478.526C0.679273 266.823 160.469 82.3294 404.419 66.6397C648.369 50.95 883.738 210.029 930.309 421.732Z" stroke="#235AFF" stroke-width="1.73206" shape-rendering="crispEdges"/>
</g>
<g filter="url(#filter7_d_219_165)" style="mix-blend-mode:plus-lighter">
<path d="M42.9555 506.831C-28.6181 280.305 110.363 67.0923 353.459 30.6558C596.554 -5.78061 851.609 148.372 923.182 374.898C994.756 601.424 855.775 814.636 612.679 851.073C369.584 887.509 114.529 733.357 42.9555 506.831Z" stroke="#7339C4" stroke-width="1.73206" shape-rendering="crispEdges"/>
</g>
<g filter="url(#filter8_d_219_165)" style="mix-blend-mode:plus-lighter">
<path d="M51.2778 505.583C-14.1841 298.4 125.938 101.34 364.496 65.5839C603.055 29.8275 849.403 168.961 914.865 376.144C980.327 583.327 840.204 780.387 601.645 816.143C363.086 851.899 116.74 712.766 51.2778 505.583Z" stroke="#325EFF" stroke-width="1.73206" shape-rendering="crispEdges"/>
</g>
<g filter="url(#filter9_d_219_165)" style="mix-blend-mode:plus-lighter">
<path d="M41.5407 469.258C-5.02955 257.555 154.761 73.0618 398.71 57.3721C642.66 41.6824 878.029 200.76 924.6 412.463C971.171 624.167 811.38 808.66 567.431 824.35C323.481 840.04 88.1114 680.961 41.5407 469.258Z" stroke="#325EFF" stroke-width="1.73206" shape-rendering="crispEdges"/>
</g>
<g filter="url(#filter10_d_219_165)" style="mix-blend-mode:plus-lighter">
<path d="M923.198 374.905C995.011 602.188 856.219 816.011 613.127 852.447C370.034 888.883 114.784 734.121 42.9707 506.838C-28.8423 279.554 109.949 65.7317 353.042 29.2957C596.135 -7.14035 851.385 147.621 923.198 374.905Z" stroke="#7339C4" stroke-width="1.73206" shape-rendering="crispEdges"/>
</g>
<g filter="url(#filter11_d_219_165)" style="mix-blend-mode:plus-lighter">
<path d="M914.878 376.152C979.9 581.943 839.431 777.884 600.866 813.641C362.302 849.398 116.314 711.382 51.2912 505.59C-13.7313 299.799 126.74 103.858 365.304 68.1008C603.868 32.3437 849.856 170.36 914.878 376.152Z" stroke="#325EFF" stroke-width="1.73206" shape-rendering="crispEdges"/>
</g>
<g filter="url(#filter12_d_219_165)" style="mix-blend-mode:plus-lighter">
<path d="M924.613 412.475C971.184 624.178 811.394 808.671 567.444 824.36C323.494 840.05 88.1251 680.972 41.5542 469.269C-5.01638 257.566 154.774 73.0721 398.724 57.3824C642.673 41.6927 878.043 200.771 924.613 412.475Z" stroke="#325EFF" stroke-width="1.73206" shape-rendering="crispEdges"/>
</g>
<defs>
<filter id="filter1_d_219_165" x="25.4787" y="33.744" width="926.569" height="839.688" filterUnits="userSpaceOnUse" color-interpolation-filters="sRGB">
<feFlood flood-opacity="0" result="BackgroundImageFix"/>
<feColorMatrix in="SourceAlpha" type="matrix" values="0 0 0 0 0 0 0 0 0 0 0 0 0 0 0 0 0 0 127 0" result="hardAlpha"/>
<feOffset dy="3.46412"/>
<feGaussianBlur stdDeviation="1.73206"/>
<feComposite in2="hardAlpha" operator="out"/>
<feColorMatrix type="matrix" values="0 0 0 0 0 0 0 0 0 0 0 0 0 0 0 0 0 0 0.25 0"/>
<feBlend mode="normal" in2="BackgroundImageFix" result="effect1_dropShadow_219_165"/>
<feBlend mode="normal" in="SourceGraphic" in2="effect1_dropShadow_219_165" result="shape"/>
</filter>
<filter id="filter2_d_219_165" x="36.5123" y="68.4019" width="904.507" height="770.369" filterUnits="userSpaceOnUse" color-interpolation-filters="sRGB">
<feFlood flood-opacity="0" result="BackgroundImageFix"/>
<feColorMatrix in="SourceAlpha" type="matrix" values="0 0 0 0 0 0 0 0 0 0 0 0 0 0 0 0 0 0 127 0" result="hardAlpha"/>
<feOffset dy="3.46412"/>
<feGaussianBlur stdDeviation="1.73206"/>
<feComposite in2="hardAlpha" operator="out"/>
<feColorMatrix type="matrix" values="0 0 0 0 0 0 0 0 0 0 0 0 0 0 0 0 0 0 0.25 0"/>
<feBlend mode="normal" in2="BackgroundImageFix" result="effect1_dropShadow_219_165"/>
<feBlend mode="normal" in="SourceGraphic" in2="effect1_dropShadow_219_165" result="shape"/>
</filter>
<filter id="filter3_d_219_165" x="34.8157" y="64.7138" width="907.9" height="777.743" filterUnits="userSpaceOnUse" color-interpolation-filters="sRGB">
<feFlood flood-opacity="0" result="BackgroundImageFix"/>
<feColorMatrix in="SourceAlpha" type="matrix" values="0 0 0 0 0 0 0 0 0 0 0 0 0 0 0 0 0 0 127 0" result="hardAlpha"/>
<feOffset dy="3.46412"/>
<feGaussianBlur stdDeviation="1.73206"/>
<feComposite in2="hardAlpha" operator="out"/>
<feColorMatrix type="matrix" values="0 0 0 0 0 0 0 0 0 0 0 0 0 0 0 0 0 0 0.25 0"/>
<feBlend mode="normal" in2="BackgroundImageFix" result="effect1_dropShadow_219_165"/>
<feBlend mode="normal" in="SourceGraphic" in2="effect1_dropShadow_219_165" result="shape"/>
</filter>
<filter id="filter4_d_219_165" x="25.3712" y="32.4018" width="926.814" height="842.387" filterUnits="userSpaceOnUse" color-interpolation-filters="sRGB">
<feFlood flood-opacity="0" result="BackgroundImageFix"/>
<feColorMatrix in="SourceAlpha" type="matrix" values="0 0 0 0 0 0 0 0 0 0 0 0 0 0 0 0 0 0 127 0" result="hardAlpha"/>
<feOffset dy="3.46412"/>
<feGaussianBlur stdDeviation="1.73206"/>
<feComposite in2="hardAlpha" operator="out"/>
<feColorMatrix type="matrix" values="0 0 0 0 0 0 0 0 0 0 0 0 0 0 0 0 0 0 0.25 0"/>
<feBlend mode="normal" in2="BackgroundImageFix" result="effect1_dropShadow_219_165"/>
<feBlend mode="normal" in="SourceGraphic" in2="effect1_dropShadow_219_165" result="shape"/>
</filter>
<filter id="filter5_d_219_165" x="36.7371" y="70.8819" width="904.087" height="765.424" filterUnits="userSpaceOnUse" color-interpolation-filters="sRGB">
<feFlood flood-opacity="0" result="BackgroundImageFix"/>
<feColorMatrix in="SourceAlpha" type="matrix" values="0 0 0 0 0 0 0 0 0 0 0 0 0 0 0 0 0 0 127 0" result="hardAlpha"/>
<feOffset dy="3.46412"/>
<feGaussianBlur stdDeviation="1.73206"/>
<feComposite in2="hardAlpha" operator="out"/>
<feColorMatrix type="matrix" values="0 0 0 0 0 0 0 0 0 0 0 0 0 0 0 0 0 0 0.25 0"/>
<feBlend mode="normal" in2="BackgroundImageFix" result="effect1_dropShadow_219_165"/>
<feBlend mode="normal" in="SourceGraphic" in2="effect1_dropShadow_219_165" result="shape"/>
</filter>
<filter id="filter6_d_219_165" x="34.8294" y="64.7238" width="907.9" height="777.743" filterUnits="userSpaceOnUse" color-interpolation-filters="sRGB">
<feFlood flood-opacity="0" result="BackgroundImageFix"/>
<feColorMatrix in="SourceAlpha" type="matrix" values="0 0 0 0 0 0 0 0 0 0 0 0 0 0 0 0 0 0 127 0" result="hardAlpha"/>
<feOffset dy="3.46412"/>
<feGaussianBlur stdDeviation="1.73206"/>
<feComposite in2="hardAlpha" operator="out"/>
<feColorMatrix type="matrix" values="0 0 0 0 0 0 0 0 0 0 0 0 0 0 0 0 0 0 0.25 0"/>
<feBlend mode="normal" in2="BackgroundImageFix" result="effect1_dropShadow_219_165"/>
<feBlend mode="normal" in="SourceGraphic" in2="effect1_dropShadow_219_165" result="shape"/>
</filter>
<filter id="filter7_d_219_165" x="19.785" y="24.4867" width="926.569" height="839.688" filterUnits="userSpaceOnUse" color-interpolation-filters="sRGB">
<feFlood flood-opacity="0" result="BackgroundImageFix"/>
<feColorMatrix in="SourceAlpha" type="matrix" values="0 0 0 0 0 0 0 0 0 0 0 0 0 0 0 0 0 0 127 0" result="hardAlpha"/>
<feOffset dy="3.46412"/>
<feGaussianBlur stdDeviation="1.73206"/>
<feComposite in2="hardAlpha" operator="out"/>
<feColorMatrix type="matrix" values="0 0 0 0 0 0 0 0 0 0 0 0 0 0 0 0 0 0 0.25 0"/>
<feBlend mode="normal" in2="BackgroundImageFix" result="effect1_dropShadow_219_165"/>
<feBlend mode="normal" in="SourceGraphic" in2="effect1_dropShadow_219_165" result="shape"/>
</filter>
<filter id="filter8_d_219_165" x="30.8176" y="59.1458" width="904.507" height="770.369" filterUnits="userSpaceOnUse" color-interpolation-filters="sRGB">
<feFlood flood-opacity="0" result="BackgroundImageFix"/>
<feColorMatrix in="SourceAlpha" type="matrix" values="0 0 0 0 0 0 0 0 0 0 0 0 0 0 0 0 0 0 127 0" result="hardAlpha"/>
<feOffset dy="3.46412"/>
<feGaussianBlur stdDeviation="1.73206"/>
<feComposite in2="hardAlpha" operator="out"/>
<feColorMatrix type="matrix" values="0 0 0 0 0 0 0 0 0 0 0 0 0 0 0 0 0 0 0.25 0"/>
<feBlend mode="normal" in2="BackgroundImageFix" result="effect1_dropShadow_219_165"/>
<feBlend mode="normal" in="SourceGraphic" in2="effect1_dropShadow_219_165" result="shape"/>
</filter>
<filter id="filter9_d_219_165" x="29.1201" y="55.4561" width="907.9" height="777.743" filterUnits="userSpaceOnUse" color-interpolation-filters="sRGB">
<feFlood flood-opacity="0" result="BackgroundImageFix"/>
<feColorMatrix in="SourceAlpha" type="matrix" values="0 0 0 0 0 0 0 0 0 0 0 0 0 0 0 0 0 0 127 0" result="hardAlpha"/>
<feOffset dy="3.46412"/>
<feGaussianBlur stdDeviation="1.73206"/>
<feComposite in2="hardAlpha" operator="out"/>
<feColorMatrix type="matrix" values="0 0 0 0 0 0 0 0 0 0 0 0 0 0 0 0 0 0 0.25 0"/>
<feBlend mode="normal" in2="BackgroundImageFix" result="effect1_dropShadow_219_165"/>
<feBlend mode="normal" in="SourceGraphic" in2="effect1_dropShadow_219_165" result="shape"/>
</filter>
<filter id="filter10_d_219_165" x="19.6775" y="23.1442" width="926.814" height="842.387" filterUnits="userSpaceOnUse" color-interpolation-filters="sRGB">
<feFlood flood-opacity="0" result="BackgroundImageFix"/>
<feColorMatrix in="SourceAlpha" type="matrix" values="0 0 0 0 0 0 0 0 0 0 0 0 0 0 0 0 0 0 127 0" result="hardAlpha"/>
<feOffset dy="3.46412"/>
<feGaussianBlur stdDeviation="1.73206"/>
<feComposite in2="hardAlpha" operator="out"/>
<feColorMatrix type="matrix" values="0 0 0 0 0 0 0 0 0 0 0 0 0 0 0 0 0 0 0.25 0"/>
<feBlend mode="normal" in2="BackgroundImageFix" result="effect1_dropShadow_219_165"/>
<feBlend mode="normal" in="SourceGraphic" in2="effect1_dropShadow_219_165" result="shape"/>
</filter>
<filter id="filter11_d_219_165" x="31.0414" y="61.6258" width="904.087" height="765.424" filterUnits="userSpaceOnUse" color-interpolation-filters="sRGB">
<feFlood flood-opacity="0" result="BackgroundImageFix"/>
<feColorMatrix in="SourceAlpha" type="matrix" values="0 0 0 0 0 0 0 0 0 0 0 0 0 0 0 0 0 0 127 0" result="hardAlpha"/>
<feOffset dy="3.46412"/>
<feGaussianBlur stdDeviation="1.73206"/>
<feComposite in2="hardAlpha" operator="out"/>
<feColorMatrix type="matrix" values="0 0 0 0 0 0 0 0 0 0 0 0 0 0 0 0 0 0 0.25 0"/>
<feBlend mode="normal" in2="BackgroundImageFix" result="effect1_dropShadow_219_165"/>
<feBlend mode="normal" in="SourceGraphic" in2="effect1_dropShadow_219_165" result="shape"/>
</filter>
<filter id="filter12_d_219_165" x="29.1337" y="55.4665" width="907.9" height="777.743" filterUnits="userSpaceOnUse" color-interpolation-filters="sRGB">
<feFlood flood-opacity="0" result="BackgroundImageFix"/>
<feColorMatrix in="SourceAlpha" type="matrix" values="0 0 0 0 0 0 0 0 0 0 0 0 0 0 0 0 0 0 127 0" result="hardAlpha"/>
<feOffset dy="3.46412"/>
<feGaussianBlur stdDeviation="1.73206"/>
<feComposite in2="hardAlpha" operator="out"/>
<feColorMatrix type="matrix" values="0 0 0 0 0 0 0 0 0 0 0 0 0 0 0 0 0 0 0.25 0"/>
<feBlend mode="normal" in2="BackgroundImageFix" result="effect1_dropShadow_219_165"/>
<feBlend mode="normal" in="SourceGraphic" in2="effect1_dropShadow_219_165" result="shape"/>
</filter>
</defs>
</svg>
