<svg width="191" height="19" viewBox="0 0 191 19" fill="none" xmlns="http://www.w3.org/2000/svg">
<g clip-path="url(#clip0_219_194)">
<path d="M14.0424 11.3435C13.1819 13.156 11.3455 14.4111 9.22372 14.4111C5.34393 14.4111 3.60722 11.7061 3.60722 9.02541C3.60722 5.52706 6.50098 3.63957 9.22372 3.63957C11.3456 3.63957 13.1819 4.89462 14.0425 6.7073L17.4047 5.37664C16.0125 2.213 12.8705 0 9.22372 0C6.80191 0 4.52615 0.869566 2.81572 2.44885C0.999501 4.12595 -0.000977642 6.46154 -0.000977642 9.02541C-0.000977642 14.255 3.87855 18.0506 9.22372 18.0506C12.8705 18.0506 16.0123 15.8376 17.4047 12.6741L14.0424 11.3435Z" fill="white"/>
<path d="M55.9077 14.1291L59.0715 3.92167L62.2349 14.1291H55.9077ZM66.2277 14.1291C66.1016 14.1291 65.9899 14.0464 65.9522 13.9248L61.7289 0.29783H56.4141L52.1908 13.9248C52.1531 14.0464 52.0414 14.1291 51.9153 14.1291H50.026V17.7686H68.117V14.1291H66.2277Z" fill="white"/>
<path d="M75.2375 10.5057L77.2778 3.923L79.3178 10.5057H75.2375ZM81.781 17.7682H85.349L79.9348 0.299159H74.6205L69.2063 17.7682H72.7743C72.9007 17.7682 73.012 17.6854 73.0501 17.5639L74.0463 14.3495C74.0839 14.2279 74.1953 14.1452 74.3217 14.1452H80.2336C80.36 14.1452 80.4713 14.2279 80.5094 14.3495L81.5052 17.5639C81.5428 17.6854 81.6546 17.7682 81.781 17.7682Z" fill="white"/>
<path d="M26.9335 6.84539H22.0956C21.9362 6.84539 21.807 6.7151 21.807 6.55426V4.22857C21.807 4.06785 21.9362 3.93739 22.0956 3.93739H26.9845C27.8119 3.93739 28.4788 4.64449 28.4225 5.49104C28.3713 6.26292 27.7005 6.84539 26.9335 6.84539ZM26.9845 0.29783L18.1988 0.298558V17.7685H21.807V10.7761C21.807 10.6153 21.9362 10.485 22.0956 10.485H26.8897C29.6472 10.485 31.9674 8.29481 32.0326 5.51422C32.0999 2.64971 29.8093 0.29783 26.9845 0.29783Z" fill="white"/>
<path d="M41.7243 3.64528C43.8966 3.64528 45.7682 4.96076 46.6015 6.84286H36.5465C37.4557 4.75347 39.6395 3.64528 41.7243 3.64528ZM50.5575 10.4673C50.6319 9.99939 50.672 9.51999 50.672 9.03112C50.672 4.0545 46.6582 0.0057131 41.7243 0.0057131C39.3027 0.0057131 37.0269 0.875424 35.3166 2.45456C33.5003 4.13181 32.4998 6.4674 32.4998 9.03112C32.4998 14.2607 36.3793 18.0564 41.7243 18.0564C44.9035 18.0564 47.6992 16.3746 49.2866 13.8477L45.7844 12.523C44.8045 13.6807 43.3486 14.4168 41.7243 14.4168C38.5442 14.4168 36.8049 12.5992 36.2806 10.4673H46.8698H50.5575Z" fill="white"/>
<path d="M147.572 14.411C143.692 14.411 141.956 11.7061 141.956 9.02534C141.956 5.52715 144.849 3.63952 147.572 3.63952C150.516 3.63952 152.911 6.05545 152.911 9.02534C152.911 11.995 150.516 14.411 147.572 14.411ZM147.572 -4.5827e-05C145.15 -4.5827e-05 142.874 0.869518 141.164 2.4488C139.348 4.12604 138.347 6.46151 138.347 9.02534C138.347 14.255 142.227 18.0506 147.572 18.0506C152.506 18.0506 156.519 14.0018 156.519 9.02534C156.519 4.04861 152.506 -4.5827e-05 147.572 -4.5827e-05Z" fill="white"/>
<path d="M132.342 14.1287H127.439C127.279 14.1287 127.15 13.9984 127.15 13.8375V10.775C127.15 10.6142 127.279 10.4839 127.439 10.4839H131.317H132.395C133.449 10.4839 134.295 11.3984 134.194 12.4818C134.105 13.4262 133.282 14.1287 132.342 14.1287ZM131.317 3.93628C132.145 3.93628 132.812 4.64338 132.755 5.48993C132.704 6.26181 132.033 6.84428 131.267 6.84428H127.439C127.279 6.84428 127.15 6.71387 127.15 6.55315V4.22746C127.15 4.06674 127.279 3.93628 127.439 3.93628H131.317ZM135.673 7.9625C136.113 7.20694 136.367 6.32819 136.367 5.39034C136.367 2.58178 134.101 0.296714 131.317 0.296714L123.542 0.297443V3.93628V14.1287V17.7674L132.395 17.7682C135.381 17.7682 137.81 15.3179 137.81 12.3061C137.81 10.5364 136.971 8.96121 135.673 7.9625Z" fill="white"/>
<path d="M118.872 11.3435C118.012 13.156 116.175 14.411 114.053 14.411C110.173 14.411 108.437 11.7061 108.437 9.02537C108.437 5.52702 111.331 3.63952 114.053 3.63952C116.175 3.63952 118.012 4.89458 118.872 6.70725L122.234 5.37659C120.842 2.21295 117.7 -4.5827e-05 114.053 -4.5827e-05C111.632 -4.5827e-05 109.356 0.86952 107.645 2.4488C105.829 4.1259 104.829 6.46149 104.829 9.02537C104.829 14.255 108.708 18.0506 114.053 18.0506C117.7 18.0506 120.842 15.8376 122.234 12.6741L118.872 11.3435Z" fill="white"/>
<path d="M88.3681 17.7304H103.306V14.1272H88.3681V17.7304Z" fill="white"/>
<path d="M190.944 0.29783H186.621L183.064 5.72994L179.508 0.29783H175.185L180.797 8.87236C180.861 8.9696 180.861 9.09597 180.797 9.19321L175.185 17.7678H179.508L183.064 12.3356L186.621 17.7678H190.944L185.331 9.19321C185.268 9.09597 185.268 8.9696 185.331 8.87236L190.944 0.29783Z" fill="white"/>
<path d="M168.1 0.457534L161.193 14.2278V0.29783H157.584V17.7678H163.283C163.392 17.7678 163.491 17.706 163.54 17.608L170.404 3.9256V17.7678H174.013V0.29783H168.358C168.249 0.29783 168.149 0.359557 168.1 0.457534Z" fill="white"/>
</g>
<defs>
<clipPath id="clip0_219_194">
<rect width="190.789" height="18.2081" fill="white" transform="scale(1.00111)"/>
</clipPath>
</defs>
</svg>
