<svg width="381" height="437" viewBox="0 0 381 437" fill="none" xmlns="http://www.w3.org/2000/svg">
<g style="mix-blend-mode:soft-light">
<path d="M-92 3.21533H419.849" stroke="white"/>
<path d="M-92 17.7075H419.849" stroke="white"/>
<path d="M-92 32.1997H419.849" stroke="white"/>
<path d="M63.0938 350.153L63.0938 3.15283" stroke="white"/>
<path d="M51.0938 350.153L51.0938 3.15282" stroke="white"/>
<path d="M381.492 436.145L381.492 1.52609e-05" stroke="white"/>
<path d="M-92 46.6919H419.849" stroke="white"/>
<path d="M-92 61.1841H419.849" stroke="white"/>
<path d="M-92 75.6763H419.849" stroke="white"/>
<path d="M-92 90.1685H419.849" stroke="white"/>
<path d="M-92 104.661H419.849" stroke="white"/>
<path d="M-92 119.153H419.849" stroke="white"/>
<path d="M-92 133.645H419.849" stroke="white"/>
<path d="M-92 148.137H419.849" stroke="white"/>
<path d="M-92 162.629H419.849" stroke="white"/>
<path d="M-92 177.122H419.849" stroke="white"/>
<path d="M-92 191.614H419.849" stroke="white"/>
<path d="M-92 206.106H419.849" stroke="white"/>
<path d="M-92 220.598H419.849" stroke="white"/>
<path d="M-92 235.09H419.849" stroke="white"/>
<path d="M-92 249.583H419.849" stroke="white"/>
<path d="M-92 264.067H419.849" stroke="white"/>
<path d="M-92 278.567H419.849" stroke="white"/>
<path d="M-92 293.051H419.849" stroke="white"/>
<path d="M-92 307.543H419.849" stroke="white"/>
<path d="M-92 322.036H419.849" stroke="white"/>
<path d="M-92 336.536H419.849" stroke="white"/>
<path d="M-92 350.02H419.849" stroke="white"/>
</g>
</svg>
