<svg width="87" height="48" viewBox="0 0 87 48" fill="none" xmlns="http://www.w3.org/2000/svg">
<path d="M0.347183 37.74V36.4858H4.64983V37.74H3.34033V40.2854H7.30624V37.74H5.95933V36.4858H7.30624H8.95247H10.2994V37.74H8.95247V44.0112H10.2994V45.2654H5.95933V44.0112H7.30624V41.5396H3.34033V44.0112H4.68724V45.2654H0.347183V44.0112H1.6941V37.74H0.347183Z" fill="white"/>
<path d="M16.7336 36.4858V37.74H15.3713V42.72H15.4091L19.3824 36.4858H21.0096H22.3719V37.74H21.0096V44.0112H22.3719V45.2654H18.058V44.0112H19.4203V39.0311H19.3824L15.4091 45.2654H12.4197V44.0112H13.782V37.74H12.4197V36.4858H15.4091H16.7336Z" fill="white"/>
<path d="M28.0446 40.2077C28.6021 40.2077 29.011 40.098 29.2712 39.8785C29.5313 39.6591 29.6428 39.3665 29.6428 38.9642C29.6428 38.5984 29.4942 38.3058 29.234 38.0498C28.9738 37.7938 28.5278 37.6841 27.9702 37.6841C26.9667 37.6475 26.0375 38.3058 26.0375 38.3058V39.6591H24.7366V37.7206C24.7366 37.7206 25.2198 37.2818 25.5543 37.0623C26.0746 36.6966 27.0782 36.3674 28.0446 36.3674C29.0853 36.3674 29.8287 36.66 30.3862 37.0989C30.9809 37.5378 31.2783 38.1595 31.2783 38.9642C31.2783 39.3665 31.1668 39.7322 30.9066 40.0248C30.6836 40.354 30.349 40.61 29.903 40.7929C30.3862 40.9757 30.7951 41.2317 31.0553 41.5609C31.3154 41.8901 31.4641 42.329 31.4641 42.8044C31.4641 43.6091 31.1296 44.2674 30.4977 44.7063C29.8659 45.1817 29.011 45.4012 27.9702 45.4012C27.0039 45.4012 26.1862 45.1817 25.4799 44.7063C24.7737 44.2308 24.4764 43.5725 24.4764 42.7313V42.6947H26.0003C26.0003 43.097 26.1862 43.4628 26.5578 43.7553C26.9295 44.0479 27.3755 44.1942 27.9331 44.1942C28.5278 44.1942 28.9738 44.0479 29.3083 43.7919C29.6428 43.5359 29.7915 43.2067 29.7915 42.8044C29.7915 42.329 29.6428 41.9998 29.3827 41.7804C29.0853 41.5609 28.6765 41.4512 28.0818 41.4512H26.9667V40.2077H28.0446Z" fill="white"/>
<path d="M39.2904 45.1957C39.2529 44.9759 39.2155 44.7561 39.178 44.5729C39.1406 44.3898 39.1406 44.2066 39.1031 44.0234C38.8035 44.4264 38.3916 44.7561 37.9421 45.0125C37.4553 45.2689 36.9684 45.4155 36.4441 45.4155C35.5078 45.4155 34.7963 45.1957 34.3094 44.7561C33.8225 44.3165 33.5978 43.6938 33.5978 42.8879C33.5978 42.0453 33.9349 41.4226 34.609 40.983C35.2831 40.5434 36.2194 40.3236 37.4178 40.3236H39.1031V39.2979C39.1031 38.7851 38.9533 38.3821 38.6163 38.0891C38.2792 37.796 37.8298 37.6495 37.2306 37.6495C36.8186 37.6495 36.4816 37.6861 36.1445 37.796C35.8449 37.9059 35.3955 38.0525 35.2082 38.199V39.3346H33.9723V37.4297C34.3843 37.1 34.8712 36.8436 35.4329 36.6605C35.9947 36.4773 36.6314 36.3674 37.3055 36.3674C38.3167 36.3674 39.1406 36.6238 39.7772 37.1367C40.4139 37.6495 40.7135 38.3822 40.7135 39.2979V43.5106C40.7135 43.6205 40.7135 43.7304 40.7135 43.8403C40.7135 43.9502 40.7135 43.9136 40.751 44.0234H41.9119V45.2689H39.2904V45.1957ZM36.7063 44.0234C37.2306 44.0234 37.7549 43.9136 38.1668 43.6571C38.6163 43.4007 38.9159 43.1077 39.1406 42.7413V41.3127H37.4178C36.7437 41.3127 36.2194 41.4592 35.8449 41.7523C35.4704 42.0453 35.2457 42.4116 35.2457 42.8512C35.2457 43.2175 35.358 43.5106 35.6202 43.7304C35.8449 43.9135 36.2194 44.0234 36.7063 44.0234Z" fill="white"/>
<path d="M52.3239 36.4858V44.0479H53.4233V48.0002H51.7932V45.3082H43.6425V44.0479H45.0072V37.7461H43.6425V36.4858H46.6374H48.0021V37.7461H46.6374V44.0479H50.6559V37.7461H49.2911V36.4858H50.6559H52.3239ZM53.6887 36.4858V37.7461H52.3239V36.4858H53.6887Z" fill="white"/>
<path d="M59.9955 36.4858V37.7394H58.6728V42.7172H58.7095L62.5674 36.4858H64.1473H65.47V37.7394H64.1473V44.0077H65.47V45.2614H61.2814V44.0077H62.6041V39.03H62.5674L58.7095 45.2614H55.7702V44.0077H57.0929V37.7394H55.7702V36.4858H58.6728H59.9955Z" fill="white"/>
<path d="M72.4481 44.0446H73.8283V41.8691H71.5663L69.4193 45.2614H67.1957V44.0077H68.3842L69.9561 41.611C69.381 41.4267 68.9209 41.0948 68.6142 40.6523C68.3075 40.2099 68.1541 39.7305 68.1541 39.1406C68.1541 38.3663 68.4608 37.7025 69.0743 37.2232C69.6877 36.707 70.5695 36.4858 71.643 36.4858H75.5152H76.8955V37.7394H75.5152V44.0077H76.8955V45.2614H72.4865V44.0446H72.4481ZM69.8027 39.2143C69.8027 39.6199 69.9561 39.9518 70.2244 40.2099C70.4928 40.468 70.9146 40.6155 71.4513 40.6155H73.8283V37.7394H71.643C71.0296 37.7394 70.5695 37.8869 70.2628 38.1819C69.9561 38.4769 69.8027 38.8087 69.8027 39.2143Z" fill="white"/>
<path d="M86.9525 0H0.347183V10.9723H86.9525V0Z" fill="white"/>
<path d="M4.03433 27.7302C4.59466 27.7302 5.04292 27.55 5.49118 27.2255C5.90208 26.9011 6.12621 26.5046 6.12621 26.0359H7.62041V26.072C7.65777 26.829 7.28422 27.4779 6.57447 28.0907C5.86473 28.6674 5.00556 28.9558 4.07169 28.9558C2.76427 28.9558 1.75568 28.5593 1.04594 27.7302C0.336195 26.9011 0 25.8557 0 24.594V24.2696C0 23.044 0.336195 21.9986 1.04594 21.1695C1.75568 20.3404 2.76427 19.9078 4.07169 19.9078C4.78143 19.9078 5.45382 20.0159 6.01415 20.2683C6.57447 20.4845 7.06009 20.809 7.43364 21.2055V23.1521H6.12621V21.8904C6.12621 21.8904 5.45382 21.0974 4.07169 21.1695C3.21253 21.2416 2.57749 21.4578 2.20394 22.0707C1.83039 22.6835 1.64362 23.4044 1.64362 24.2696V24.594C1.64362 25.4952 1.83039 26.2162 2.20394 26.829C2.54014 27.4418 3.17517 27.7302 4.03433 27.7302Z" fill="white"/>
<path d="M14.0642 20.0104V21.2646H12.7071V26.2446H12.7448L16.7031 20.0104H18.3241H19.6812V21.2646H18.3241V27.5358H19.6812V28.79H15.3837V27.5358H16.7408V22.5557H16.7031L12.7071 28.79H9.72901V27.5358H11.0861V21.2646H9.72901V20.0104H12.7071H14.0642Z" fill="white"/>
<path d="M21.8015 21.2646V20.0104H26.1204V21.2646H24.7684V23.8099H28.7493V21.2646H27.3973V20.0104H28.7493H30.4017H31.7537V21.2646H30.4017V27.5358H31.7537V28.79H27.3973V27.5358H28.7493V25.0642H24.7684V27.5358H26.1204V28.79H21.8015V27.5358H23.1535V21.2646H21.8015Z" fill="white"/>
<path d="M33.7214 27.5446H34.7119L37.3787 24.3471L34.7881 21.2599H33.7976V20.0104H37.4549V21.2599H36.6167L38.2168 23.2446L39.8169 21.2599H38.9788V20.0104H42.6742V21.2599H41.6837L39.0931 24.3471L41.7599 27.5446H42.7504V28.7942H39.055V27.5446H39.8931L38.2168 25.4865L36.5406 27.5446H37.3406V28.7942H33.6452V27.5446H33.7214Z" fill="white"/>
<path d="M44.2421 30.9098H45.6079V21.338H44.2421V20.0299H47.0116L47.1634 21.1547C47.4669 20.7513 47.8463 20.4579 48.2636 20.2378C48.6809 20.0178 49.2121 19.9078 49.7811 19.9078C50.8813 19.9078 51.7539 20.3479 52.3989 21.1913C53.0059 22.0348 53.3473 23.1717 53.3473 24.602V24.7853C53.3473 26.0322 53.0438 27.0591 52.3989 27.8292C51.7919 28.5994 50.9193 29.0028 49.8191 29.0028C49.25 29.0028 48.7568 28.9294 48.3395 28.7461C47.9222 28.5627 47.5428 28.306 47.2772 27.9392V30.9098H48.643V32.2411H44.2801V30.9098H44.2421ZM51.6401 24.602C51.6401 23.6118 51.4504 22.805 51.0331 22.1449C50.6158 21.5214 50.0467 21.1913 49.25 21.1913C48.7947 21.1913 48.3774 21.3014 48.036 21.4847C47.6945 21.7048 47.429 21.9615 47.2393 22.3282V26.5823C47.429 26.9491 47.7325 27.2058 48.036 27.4258C48.3774 27.6092 48.7568 27.7192 49.25 27.7192C50.0467 27.7192 50.6158 27.4625 51.0331 26.9124C51.4504 26.3623 51.6401 25.6655 51.6401 24.7853V24.602Z" fill="white"/>
<path d="M55.2652 24.3402C55.2652 23.0581 55.6412 21.9958 56.3556 21.1533C57.07 20.3107 58.0476 19.9078 59.2884 19.9078C60.5292 19.9078 61.5068 20.3107 62.2212 21.1533C62.9357 21.9958 63.3117 23.0581 63.3117 24.3402V24.5234C63.3117 25.8421 62.9357 26.9045 62.2212 27.7104C61.5068 28.5529 60.5292 28.9558 59.2884 28.9558C58.0476 28.9558 57.07 28.5529 56.3556 27.7104C55.6412 26.8678 55.2652 25.8055 55.2652 24.5234V24.3402ZM56.882 24.5234C56.882 25.4392 57.07 26.2084 57.4836 26.8312C57.8972 27.4173 58.4612 27.747 59.2508 27.747C60.0404 27.747 60.6044 27.4539 61.018 26.8312C61.4316 26.2451 61.6196 25.4758 61.6196 24.5234V24.3402C61.6196 23.4244 61.4316 22.6552 61.018 22.0691C60.6044 21.4463 60.0404 21.1533 59.2508 21.1533C58.4612 21.1533 57.8596 21.4463 57.4836 22.0691C57.07 22.6918 56.882 23.4244 56.882 24.3402V24.5234Z" fill="white"/>
</svg>
