<svg width="145" height="44" viewBox="0 0 145 44" fill="none" xmlns="http://www.w3.org/2000/svg">
<g clip-path="url(#clip0_219_565)">
<path d="M44.4955 22.0919C44.4954 27.7471 41.4355 32.9732 36.4686 35.8011L22.2517 43.8946L8.03475 35.8011C3.0677 32.9732 0.00793619 27.7471 0.00784165 22.0919V0.0313666H44.4955V22.0919ZM12.2173 18.4985C13.1689 17.439 14.899 16.7214 16.8772 16.7213H19.0268V24.6973C19.0268 26.819 18.4425 28.6766 17.5751 29.6983H26.9253C26.0597 28.6756 25.4766 26.821 25.4765 24.7022V16.7213H27.6261C29.6044 16.7213 31.3344 17.439 32.286 18.4985V11.637H12.2173V18.4985Z" fill="white"/>
<path d="M54.97 29.6968V11.637H73.5748V15.7646H60.5177V18.3451H66.9809C71.5601 18.3451 74.9619 19.377 74.9619 24.0206C74.9619 28.6649 71.5601 29.6968 66.9809 29.6968H54.97ZM60.5177 22.4727V25.5684H67.0069C68.8912 25.5684 69.3357 25.2079 69.3357 24.0206C69.3357 22.8341 68.8912 22.4727 67.0069 22.4727H60.5177Z" fill="white"/>
<path d="M105.654 22.9887V29.6968H100.107V11.637H105.654V18.2161H114.734V11.637H120.282V29.6968H114.734V22.9887H105.654Z" fill="white"/>
<path d="M129.242 22.8853V29.6968H123.694V11.637H129.242V18.3708H132.565L138.348 11.637H144.628L137.38 20.0733V20.4089L144.994 29.6968H138.112L132.539 22.8853H129.242Z" fill="white"/>
<path d="M91.291 27.0394H82.6295L81.6613 29.6968H75.8523L83.1008 11.637H91.1078L98.3298 29.6968H92.2592L91.291 27.0394ZM89.7995 22.9118L87.2351 15.791H86.7638L84.1474 22.9118H89.7995Z" fill="white"/>
</g>
<defs>
<clipPath id="clip0_219_565">
<rect width="144.46" height="43.7006" fill="white" transform="scale(1.00373)"/>
</clipPath>
</defs>
</svg>
