<svg xmlns="http://www.w3.org/2000/svg" width="1440" height="736" viewBox="0 0 1440 736" preserveAspectRatio="xMidYMid slice" fill="none" aria-hidden="true">
    <g filter="url(#s6_softblur)" style="mix-blend-mode:plus-lighter">
        <path d="M428.819 600.193C282.914 463.382 297.064 249.551 460.546 122.593C624.029 -4.36516 874.834 3.70586 1020.74 140.517C1166.65 277.328 1152.49 491.159 989.012 618.117C825.529 745.075 574.725 737.004 428.819 600.193Z" stroke="#FF8C32" stroke-width="2.24" fill="none"/>
        <path d="M434.426 595.84C301.011 470.741 322.626 268.311 483.076 143.708C643.525 19.1057 881.73 19.764 1015.15 144.862C1148.56 269.961 1126.94 472.391 966.495 596.993C806.045 721.596 567.841 720.938 434.426 595.84Z" stroke="#235AFF" stroke-width="2.24" fill="none"/>
        <path d="M412.302 573.189C290.895 436.993 332.123 235.678 504.812 123.584C677.5 11.4912 915.862 31.3222 1037.27 167.518C1158.68 303.714 1117.45 505.029 944.76 617.122C772.072 729.215 533.71 709.385 412.302 573.189Z" stroke="#235AFF" stroke-width="2.24" fill="none"/>
        <path d="M1020.76 140.491C1167.16 277.76 1153.4 491.961 989.917 618.917C826.437 745.873 575.237 737.437 428.842 600.167C282.446 462.897 296.208 248.696 459.688 121.74C623.168 -5.21551 874.367 3.22124 1020.76 140.491Z" stroke="#FF8C32" stroke-width="2.24" fill="none"/>
        <path d="M1015.16 144.832C1147.67 269.088 1125.34 470.838 964.888 595.445C804.432 720.052 566.954 720.065 434.437 595.81C301.921 471.554 324.25 269.803 484.706 145.196C645.161 20.5886 882.64 20.5764 1015.16 144.832Z" stroke="#235AFF" stroke-width="2.24" fill="none"/>
        <path d="M1037.28 167.496C1158.69 303.692 1117.46 505.007 944.774 617.101C772.086 729.194 533.724 709.363 412.316 573.167C290.909 436.971 332.138 235.656 504.826 123.563C677.514 11.4696 915.876 31.3001 1037.28 167.496Z" stroke="#235AFF" stroke-width="2.24" fill="none"/>
        <path d="M420.818 595.735C274.913 458.924 289.063 245.093 452.545 118.135C616.028 -8.82366 866.833 -0.752634 1012.74 136.058C1158.65 272.869 1144.49 486.7 981.011 613.658C817.528 740.616 566.724 732.545 420.818 595.735Z" stroke="#7339C4" stroke-width="2.24" fill="none"/>
        <path d="M426.42 591.391C293.005 466.293 314.62 263.862 475.07 139.259C635.519 14.657 873.724 15.3152 1007.14 140.414C1140.55 265.512 1118.94 467.942 958.489 592.544C798.039 717.147 559.835 716.489 426.42 591.391Z" stroke="#325EFF" stroke-width="2.24" fill="none"/>
        <path d="M404.293 568.726C282.885 432.531 324.114 231.215 496.802 119.121C669.49 7.02829 907.852 26.8593 1029.26 163.055C1150.67 299.251 1109.44 500.566 936.75 612.659C764.062 724.753 525.7 704.922 404.293 568.726Z" stroke="#325EFF" stroke-width="2.24" fill="none"/>
        <path d="M1012.75 136.037C1159.14 273.307 1145.38 487.507 981.902 614.464C818.422 741.419 567.222 732.983 420.827 595.714C274.432 458.444 288.193 244.243 451.674 117.287C615.154 -9.66912 866.353 -1.23237 1012.75 136.037Z" stroke="#7339C4" stroke-width="2.24" fill="none"/>
        <path d="M1007.16 140.381C1139.67 264.637 1117.34 466.387 956.889 590.994C796.434 715.601 558.955 715.614 426.439 591.358C293.923 467.103 316.252 265.352 476.708 140.745C637.163 16.1375 874.642 16.1252 1007.16 140.381Z" stroke="#325EFF" stroke-width="2.24" fill="none"/>
        <path d="M1029.27 163.032C1150.68 299.228 1109.45 500.544 936.764 612.637C764.076 724.73 525.713 704.9 404.306 568.704C282.899 432.508 324.128 231.193 496.815 119.1C669.503 7.00627 907.865 26.8368 1029.27 163.032Z" stroke="#325EFF" stroke-width="2.24" fill="none"/>
    </g>
    <defs>
        <filter id="s6_softblur" x="-50" y="-50" width="1540" height="836" filterUnits="userSpaceOnUse">
            <feGaussianBlur stdDeviation="2.5"/>
        </filter>
    </defs>
</svg>
