<svg width="125" height="46" viewBox="0 0 125 46" fill="none" xmlns="http://www.w3.org/2000/svg">
<g clip-path="url(#clip0_219_294)">
<path d="M17.085 13.7633C16.5586 14.8655 15.731 15.7963 14.6979 16.448C13.6648 17.0998 12.4684 17.4459 11.2469 17.4465C6.54505 17.4465 4.4449 14.1943 4.4449 10.9735C4.4449 6.77327 7.94776 4.50855 11.2469 4.50855C12.4684 4.50906 13.6648 4.85518 14.6979 5.50692C15.731 6.15867 16.5586 7.08945 17.085 8.19165L21.1599 6.62439C20.3093 4.70446 18.9201 3.07251 17.1605 1.92638C15.401 0.780246 13.3468 0.169147 11.2469 0.167182C8.38192 0.141226 5.6111 1.18969 3.481 3.10583C2.39002 4.10932 1.52264 5.33135 0.935313 6.69233C0.347985 8.05334 0.0539011 9.52274 0.0721809 11.0049C0.0721809 17.2741 4.77403 21.8505 11.2469 21.8505C13.3538 21.8432 15.4129 21.2228 17.1732 20.065C18.9335 18.9073 20.3187 17.2622 21.1599 15.3306L17.085 13.7633Z" fill="#FBFBFB"/>
<path d="M67.8211 17.0388L71.6532 4.77481L75.4851 17.0388H67.8211ZM80.3595 17.0388C80.2838 17.0386 80.2098 17.0142 80.1491 16.969C80.0885 16.9239 80.0444 16.8604 80.0223 16.788L74.8739 0.409935H68.4324L63.3152 16.7802C63.2934 16.8526 63.2488 16.9161 63.1881 16.9612C63.1275 17.0063 63.0539 17.0308 62.9782 17.0309H60.69V21.4037H82.6319V17.0309L80.3595 17.0388Z" fill="#FBFBFB"/>
<path d="M91.2684 12.6646L93.737 4.7577L96.2055 12.6646H91.2684ZM99.1908 21.3865H103.517L96.9578 0.392824H90.5162L83.9573 21.3787H88.2831C88.3564 21.3787 88.4281 21.355 88.4872 21.3113C88.5462 21.2676 88.5903 21.2061 88.6116 21.1357L89.8191 17.2724C89.842 17.2015 89.8868 17.1397 89.9475 17.0961C90.0082 17.0524 90.0814 17.0291 90.1554 17.0295H97.3185C97.3926 17.0291 97.4658 17.0524 97.5265 17.0961C97.5871 17.1397 97.632 17.2015 97.6549 17.2724L98.8624 21.1357C98.8836 21.2061 98.9277 21.2676 98.9868 21.3113C99.0459 21.355 99.1176 21.3787 99.1908 21.3787" fill="#FBFBFB"/>
<path d="M32.7464 8.26626H26.8848C26.7927 8.26421 26.705 8.22617 26.6406 8.16032C26.5761 8.09439 26.54 8.00585 26.54 7.9137V5.09256C26.54 5.00038 26.5761 4.91184 26.6406 4.84593C26.705 4.78002 26.7927 4.74196 26.8848 4.73992H32.8091C33.0485 4.74051 33.2853 4.79009 33.5048 4.88556C33.7243 4.98103 33.922 5.12038 34.0857 5.29507C34.2494 5.46976 34.3756 5.67607 34.4565 5.90134C34.5375 6.1266 34.5716 6.36606 34.5567 6.60498C34.517 7.05526 34.3083 7.47381 33.9724 7.77628C33.6365 8.07871 33.1984 8.24263 32.7464 8.23499M32.8091 0.398568H22.1673V21.3923H26.54V12.9917C26.54 12.8994 26.5761 12.811 26.6406 12.745C26.705 12.6791 26.7927 12.6411 26.8848 12.639H32.6916C34.3091 12.6585 35.8702 12.0449 37.0414 10.9292C38.2128 9.81356 38.9015 8.28422 38.9607 6.66769C38.9784 5.85208 38.8333 5.04114 38.5338 4.28228C38.2345 3.52343 37.7867 2.83191 37.2168 2.24816C36.6469 1.66442 35.9664 1.20017 35.2149 0.882578C34.4635 0.564996 33.6563 0.40046 32.8405 0.398568" fill="#FBFBFB"/>
<path d="M50.6123 4.44308C51.8626 4.44492 53.0856 4.80844 54.134 5.48975C55.1825 6.17107 56.0114 7.1411 56.5209 8.28295H44.3353C44.9026 7.10953 45.795 6.12384 46.9064 5.4431C48.0178 4.76236 49.3014 4.41525 50.6045 4.44308M61.3089 12.64C61.3971 12.0695 61.4416 11.4932 61.4422 10.916C61.4401 8.04153 60.2979 5.28529 58.2661 3.25203C56.2343 1.21875 53.4788 0.0745257 50.6045 0.0703756C47.7389 0.0413572 44.967 1.09023 42.8385 3.00903C41.7467 4.01394 40.8784 5.23715 40.2897 6.59931C39.7011 7.9615 39.4054 9.43216 39.4219 10.916C39.4219 17.1851 44.1237 21.7537 50.6045 21.7537C52.4337 21.7521 54.2329 21.2879 55.8346 20.4041C57.4363 19.5204 58.7884 18.2459 59.7652 16.6992L55.5257 15.1319C54.9181 15.8436 54.1636 16.4152 53.3141 16.8074C52.4645 17.1998 51.5401 17.4034 50.6045 17.4045C46.7489 17.4045 44.6409 15.226 44.0062 12.6635H61.3089V12.64Z" fill="#FBFBFB"/>
<path d="M71.7744 41.523C67.0726 41.523 64.9724 38.2708 64.9724 35.0501C64.9724 30.8498 68.4752 28.5851 71.7744 28.5851C72.6428 28.5548 73.5085 28.6998 74.3198 29.0113C75.131 29.3227 75.8712 29.7944 76.4962 30.3981C77.1213 31.0017 77.6184 31.7251 77.9579 32.525C78.2974 33.325 78.4724 34.185 78.4724 35.054C78.4724 35.923 78.2974 36.7831 77.9579 37.583C77.6184 38.3829 77.1213 39.1062 76.4962 39.7099C75.8712 40.3136 75.131 40.7852 74.3198 41.0968C73.5085 41.4082 72.6428 41.5532 71.7744 41.523ZM71.7744 24.2123C68.9094 24.1864 66.1386 25.2349 64.0085 27.151C62.9188 28.1554 62.0521 29.3776 61.4649 30.7384C60.8776 32.0991 60.5828 33.5681 60.5997 35.0501C60.5997 41.3192 65.3015 45.8957 71.7744 45.8957C73.2227 45.9347 74.664 45.683 76.0135 45.1556C77.3628 44.6283 78.593 43.836 79.6312 42.8254C80.6693 41.8148 81.494 40.6064 82.058 39.2717C82.6212 37.937 82.9118 36.5028 82.9118 35.054C82.9118 33.6052 82.6212 32.1711 82.058 30.8363C81.494 29.5016 80.6693 28.2933 79.6312 27.2827C78.593 26.2721 77.3628 25.4797 76.0135 24.9523C74.664 24.4251 73.2227 24.1734 71.7744 24.2123Z" fill="#FBFBFB"/>
<path d="M53.325 41.158H47.3771C47.285 41.156 47.1973 41.1179 47.1329 41.052C47.0685 40.9861 47.0323 40.8976 47.0324 40.8054V37.1223C47.0324 37.0309 47.0687 36.9431 47.1334 36.8785C47.198 36.8138 47.2857 36.7775 47.3771 36.7775H53.3877C53.6929 36.7772 53.9947 36.8407 54.2738 36.964C54.553 37.0874 54.8032 37.2678 55.0083 37.4936C55.2135 37.7195 55.3692 37.9859 55.4653 38.2755C55.5614 38.5652 55.5957 38.8717 55.5662 39.1754C55.5042 39.7246 55.2407 40.2313 54.8267 40.5975C54.4127 40.9638 53.8777 41.1635 53.325 41.158ZM52.079 28.9098C52.3184 28.9103 52.5551 28.9599 52.7747 29.0554C52.9942 29.1509 53.1918 29.2902 53.3555 29.4649C53.5192 29.6396 53.6454 29.8459 53.7264 30.0712C53.8075 30.2964 53.8415 30.5359 53.8265 30.7748C53.787 31.2251 53.5782 31.6436 53.2422 31.9461C52.9064 32.2485 52.4683 32.4125 52.0164 32.4047H47.3771C47.285 32.4027 47.1973 32.3646 47.1329 32.2988C47.0685 32.2329 47.0323 32.1443 47.0324 32.0522V29.2624C47.0323 29.1702 47.0685 29.0817 47.1329 29.0158C47.1973 28.9498 47.285 28.9118 47.3771 28.9098H52.079ZM57.3608 33.7448C57.904 32.8151 58.1923 31.7585 58.1966 30.6817C58.2009 29.605 57.9211 28.5461 57.3852 27.6121C56.8494 26.678 56.0767 25.9019 55.1451 25.3619C54.2134 24.8221 53.1558 24.5375 52.079 24.5371H42.6753V45.5229H53.4034C54.7701 45.5166 56.1008 45.0835 57.2093 44.2841C58.3179 43.4847 59.1491 42.3589 59.5868 41.0642C60.0244 39.7694 60.0467 38.3702 59.6504 37.0622C59.2541 35.7541 58.4591 34.6025 57.3764 33.7683" fill="#FBFBFB"/>
<path d="M37.0346 37.8456C36.5085 38.9487 35.6812 39.8806 34.6483 40.5337C33.6152 41.1868 32.4186 41.5344 31.1965 41.5366C26.4946 41.5366 24.3866 38.2845 24.3866 35.0637C24.3866 30.8635 27.8974 28.5909 31.1965 28.5909C32.4186 28.593 33.6152 28.9407 34.6483 29.5938C35.6812 30.2469 36.5085 31.1787 37.0346 32.2818L41.1095 30.7145C40.2601 28.7931 38.8714 27.1595 37.1118 26.012C35.3521 24.8644 33.2972 24.2521 31.1965 24.2495C28.3303 24.225 25.5592 25.2763 23.4306 27.196C22.3382 28.1988 21.4694 29.4205 20.8807 30.7815C20.292 32.1426 19.9967 33.6123 20.014 35.0951C20.014 41.3642 24.7158 45.9407 31.1965 45.9407C33.2972 45.938 35.3521 45.3257 37.1118 44.1782C38.8714 43.0306 40.2601 41.397 41.1095 39.4756L37.0346 37.8456Z" fill="#FBFBFB"/>
<path d="M18.2611 41.1992H3.0585V45.5641H18.2611V41.1992Z" fill="#FBFBFB"/>
<path d="M124.389 24.5297H119.147L114.844 31.0575L110.534 24.5297H105.291L112.094 34.866C112.132 34.9227 112.152 34.9895 112.152 35.0579C112.152 35.1263 112.132 35.1931 112.094 35.2499L105.291 45.5469H110.534L114.844 39.0271L119.147 45.5469H124.389L117.587 35.2499C117.549 35.1931 117.529 35.1263 117.529 35.0579C117.529 34.9895 117.549 34.9227 117.587 34.866L124.389 24.5297Z" fill="#FBFBFB"/>
<path d="M96.6994 24.7256L88.3296 41.2683V24.5297H83.9573V45.5156H90.8376C90.9022 45.5159 90.9652 45.4985 91.0203 45.4653C91.0754 45.4322 91.1211 45.3845 91.1511 45.3275L99.4657 28.8711V45.4999H103.838V24.5297H96.9893C96.9239 24.5311 96.8601 24.55 96.805 24.5844C96.7498 24.6189 96.7049 24.6677 96.6758 24.7256" fill="#FBFBFB"/>
</g>
<defs>
<clipPath id="clip0_219_294">
<rect width="124.297" height="45.9426" fill="white" transform="scale(1.00125)"/>
</clipPath>
</defs>
</svg>
