<svg width="805" height="628" viewBox="0 0 805 628" fill="none" xmlns="http://www.w3.org/2000/svg">
<g filter="url(#filter0_d_282_800)" style="mix-blend-mode:plus-lighter">
<path d="M113.805 519.63C-30.8134 395.357 -17.2298 201.422 144.288 86.4703C305.805 -28.4809 553.972 -20.833 698.591 103.44C843.21 227.714 829.627 421.648 668.109 536.6C506.592 651.551 258.424 643.904 113.805 519.63Z" stroke="#7339C4" stroke-width="2.23995" shape-rendering="crispEdges"/>
</g>
<g filter="url(#filter1_d_282_800)" style="mix-blend-mode:plus-lighter">
<path d="M690.695 99.3863C834.831 223.244 820.862 416.844 659.342 531.798C497.822 646.751 250.045 639.434 105.91 515.576C-38.2254 391.718 -24.2577 198.119 137.262 83.1653C298.783 -31.7882 546.56 -24.4717 690.695 99.3863Z" stroke="#FF8C32" stroke-width="2.23995" shape-rendering="crispEdges"/>
</g>
<g filter="url(#filter2_d_282_800)" style="mix-blend-mode:plus-lighter">
<path d="M685.15 103.328C816.94 216.578 795.602 399.854 637.076 512.676C478.55 625.498 243.223 624.891 111.432 511.641C-20.3585 398.391 0.979941 215.114 159.506 102.292C318.032 -10.5305 553.359 -9.92222 685.15 103.328Z" stroke="#235AFF" stroke-width="2.23995" shape-rendering="crispEdges"/>
</g>
<g filter="url(#filter3_d_282_800)" style="mix-blend-mode:plus-lighter">
<path d="M707.015 123.829C826.93 247.11 786.234 429.38 615.599 530.887C444.963 632.393 209.484 614.412 89.5687 491.13C-30.3462 367.848 10.3505 185.578 180.986 84.0714C351.621 -17.4347 587.1 0.546853 707.015 123.829Z" stroke="#235AFF" stroke-width="2.23995" shape-rendering="crispEdges"/>
</g>
<g filter="url(#filter4_d_282_800)" style="mix-blend-mode:plus-lighter">
<path d="M105.882 515.598C-38.7363 391.325 -25.1527 197.39 136.365 82.4385C297.882 -32.5127 546.049 -24.8648 690.668 99.4087C835.287 223.682 821.704 417.617 660.187 532.568C498.669 647.52 250.501 639.872 105.882 515.598Z" stroke="#FF8C32" stroke-width="2.23995" shape-rendering="crispEdges"/>
</g>
<g filter="url(#filter5_d_282_800)" style="mix-blend-mode:plus-lighter">
<path d="M111.437 511.662C-19.4656 399.175 2.57722 216.514 161.109 103.687C319.641 -9.13955 554.252 -9.13755 685.155 103.349C816.057 215.837 794.014 398.497 635.482 511.324C476.95 624.151 242.34 624.149 111.437 511.662Z" stroke="#235AFF" stroke-width="2.23995" shape-rendering="crispEdges"/>
</g>
<g filter="url(#filter6_d_282_800)" style="mix-blend-mode:plus-lighter">
<path d="M89.5549 491.155C-30.36 367.873 10.3359 185.603 180.971 84.0968C351.607 -17.4095 587.086 0.571652 707.001 123.853C826.916 247.135 786.22 429.406 615.584 530.912C444.949 632.418 209.47 614.436 89.5549 491.155Z" stroke="#235AFF" stroke-width="2.23995" shape-rendering="crispEdges"/>
</g>
<g filter="url(#filter7_d_282_800)" style="mix-blend-mode:plus-lighter">
<path d="M698.603 103.418C842.738 227.276 828.77 420.876 667.249 535.829C505.729 650.783 257.952 643.466 113.817 519.608C-30.3181 395.75 -16.3505 202.151 145.17 87.197C306.69 -27.7565 554.467 -20.44 698.603 103.418Z" stroke="#7339C4" stroke-width="2.23995" shape-rendering="crispEdges"/>
</g>
<g filter="url(#filter8_d_282_800)" style="mix-blend-mode:plus-lighter">
<path d="M693.073 107.36C824.863 220.61 803.524 403.886 644.998 516.708C486.472 629.53 251.146 628.922 119.355 515.672C-12.4356 402.422 8.90282 219.146 167.429 106.324C325.955 -6.49875 561.282 -5.89045 693.073 107.36Z" stroke="#325EFF" stroke-width="2.23995" shape-rendering="crispEdges"/>
</g>
<g filter="url(#filter9_d_282_800)" style="mix-blend-mode:plus-lighter">
<path d="M714.938 127.868C834.853 251.15 794.157 433.42 623.522 534.926C452.886 636.432 217.407 618.451 97.4916 495.169C-22.4233 371.888 18.2734 189.617 188.909 88.111C359.544 -13.3951 595.023 4.58643 714.938 127.868Z" stroke="#325EFF" stroke-width="2.23995" shape-rendering="crispEdges"/>
</g>
<g filter="url(#filter10_d_282_800)" style="mix-blend-mode:plus-lighter">
<path d="M119.333 515.694C-11.57 403.207 10.4728 220.546 169.005 107.719C327.537 -5.10779 562.148 -5.10578 693.05 107.381C823.953 219.868 801.909 402.529 643.377 515.356C484.845 628.182 250.235 628.181 119.333 515.694Z" stroke="#325EFF" stroke-width="2.23995" shape-rendering="crispEdges"/>
</g>
<defs>
<filter id="filter0_d_282_800" x="7.92346" y="4.03176" width="796.549" height="623.968" filterUnits="userSpaceOnUse" color-interpolation-filters="sRGB">
<feFlood flood-opacity="0" result="BackgroundImageFix"/>
<feColorMatrix in="SourceAlpha" type="matrix" values="0 0 0 0 0 0 0 0 0 0 0 0 0 0 0 0 0 0 127 0" result="hardAlpha"/>
<feOffset dy="4.47989"/>
<feGaussianBlur stdDeviation="2.23995"/>
<feComposite in2="hardAlpha" operator="out"/>
<feColorMatrix type="matrix" values="0 0 0 0 0 0 0 0 0 0 0 0 0 0 0 0 0 0 0.25 0"/>
<feBlend mode="normal" in2="BackgroundImageFix" result="effect1_dropShadow_282_800"/>
<feBlend mode="normal" in="SourceGraphic" in2="effect1_dropShadow_282_800" result="shape"/>
</filter>
<filter id="filter1_d_282_800" x="0.606122" y="0.526922" width="795.393" height="622.87" filterUnits="userSpaceOnUse" color-interpolation-filters="sRGB">
<feFlood flood-opacity="0" result="BackgroundImageFix"/>
<feColorMatrix in="SourceAlpha" type="matrix" values="0 0 0 0 0 0 0 0 0 0 0 0 0 0 0 0 0 0 127 0" result="hardAlpha"/>
<feOffset dy="4.47989"/>
<feGaussianBlur stdDeviation="2.23995"/>
<feComposite in2="hardAlpha" operator="out"/>
<feColorMatrix type="matrix" values="0 0 0 0 0 0 0 0 0 0 0 0 0 0 0 0 0 0 0.25 0"/>
<feBlend mode="normal" in2="BackgroundImageFix" result="effect1_dropShadow_282_800"/>
<feBlend mode="normal" in="SourceGraphic" in2="effect1_dropShadow_282_800" result="shape"/>
</filter>
<filter id="filter2_d_282_800" x="19.3194" y="17.0543" width="757.943" height="589.821" filterUnits="userSpaceOnUse" color-interpolation-filters="sRGB">
<feFlood flood-opacity="0" result="BackgroundImageFix"/>
<feColorMatrix in="SourceAlpha" type="matrix" values="0 0 0 0 0 0 0 0 0 0 0 0 0 0 0 0 0 0 127 0" result="hardAlpha"/>
<feOffset dy="4.47989"/>
<feGaussianBlur stdDeviation="2.23995"/>
<feComposite in2="hardAlpha" operator="out"/>
<feColorMatrix type="matrix" values="0 0 0 0 0 0 0 0 0 0 0 0 0 0 0 0 0 0 0.25 0"/>
<feBlend mode="normal" in2="BackgroundImageFix" result="effect1_dropShadow_282_800"/>
<feBlend mode="normal" in="SourceGraphic" in2="effect1_dropShadow_282_800" result="shape"/>
</filter>
<filter id="filter3_d_282_800" x="15.0103" y="17.2834" width="766.565" height="589.352" filterUnits="userSpaceOnUse" color-interpolation-filters="sRGB">
<feFlood flood-opacity="0" result="BackgroundImageFix"/>
<feColorMatrix in="SourceAlpha" type="matrix" values="0 0 0 0 0 0 0 0 0 0 0 0 0 0 0 0 0 0 127 0" result="hardAlpha"/>
<feOffset dy="4.47989"/>
<feGaussianBlur stdDeviation="2.23995"/>
<feComposite in2="hardAlpha" operator="out"/>
<feColorMatrix type="matrix" values="0 0 0 0 0 0 0 0 0 0 0 0 0 0 0 0 0 0 0.25 0"/>
<feBlend mode="normal" in2="BackgroundImageFix" result="effect1_dropShadow_282_800"/>
<feBlend mode="normal" in="SourceGraphic" in2="effect1_dropShadow_282_800" result="shape"/>
</filter>
<filter id="filter4_d_282_800" x="0.000576569" y="0" width="796.549" height="623.968" filterUnits="userSpaceOnUse" color-interpolation-filters="sRGB">
<feFlood flood-opacity="0" result="BackgroundImageFix"/>
<feColorMatrix in="SourceAlpha" type="matrix" values="0 0 0 0 0 0 0 0 0 0 0 0 0 0 0 0 0 0 127 0" result="hardAlpha"/>
<feOffset dy="4.47989"/>
<feGaussianBlur stdDeviation="2.23995"/>
<feComposite in2="hardAlpha" operator="out"/>
<feColorMatrix type="matrix" values="0 0 0 0 0 0 0 0 0 0 0 0 0 0 0 0 0 0 0.25 0"/>
<feBlend mode="normal" in2="BackgroundImageFix" result="effect1_dropShadow_282_800"/>
<feBlend mode="normal" in="SourceGraphic" in2="effect1_dropShadow_282_800" result="shape"/>
</filter>
<filter id="filter5_d_282_800" x="20.343" y="18.0486" width="755.904" height="587.875" filterUnits="userSpaceOnUse" color-interpolation-filters="sRGB">
<feFlood flood-opacity="0" result="BackgroundImageFix"/>
<feColorMatrix in="SourceAlpha" type="matrix" values="0 0 0 0 0 0 0 0 0 0 0 0 0 0 0 0 0 0 127 0" result="hardAlpha"/>
<feOffset dy="4.47989"/>
<feGaussianBlur stdDeviation="2.23995"/>
<feComposite in2="hardAlpha" operator="out"/>
<feColorMatrix type="matrix" values="0 0 0 0 0 0 0 0 0 0 0 0 0 0 0 0 0 0 0.25 0"/>
<feBlend mode="normal" in2="BackgroundImageFix" result="effect1_dropShadow_282_800"/>
<feBlend mode="normal" in="SourceGraphic" in2="effect1_dropShadow_282_800" result="shape"/>
</filter>
<filter id="filter6_d_282_800" x="14.9947" y="17.3086" width="766.565" height="589.352" filterUnits="userSpaceOnUse" color-interpolation-filters="sRGB">
<feFlood flood-opacity="0" result="BackgroundImageFix"/>
<feColorMatrix in="SourceAlpha" type="matrix" values="0 0 0 0 0 0 0 0 0 0 0 0 0 0 0 0 0 0 127 0" result="hardAlpha"/>
<feOffset dy="4.47989"/>
<feGaussianBlur stdDeviation="2.23995"/>
<feComposite in2="hardAlpha" operator="out"/>
<feColorMatrix type="matrix" values="0 0 0 0 0 0 0 0 0 0 0 0 0 0 0 0 0 0 0.25 0"/>
<feBlend mode="normal" in2="BackgroundImageFix" result="effect1_dropShadow_282_800"/>
<feBlend mode="normal" in="SourceGraphic" in2="effect1_dropShadow_282_800" result="shape"/>
</filter>
<filter id="filter7_d_282_800" x="8.51338" y="4.55868" width="795.393" height="622.87" filterUnits="userSpaceOnUse" color-interpolation-filters="sRGB">
<feFlood flood-opacity="0" result="BackgroundImageFix"/>
<feColorMatrix in="SourceAlpha" type="matrix" values="0 0 0 0 0 0 0 0 0 0 0 0 0 0 0 0 0 0 127 0" result="hardAlpha"/>
<feOffset dy="4.47989"/>
<feGaussianBlur stdDeviation="2.23995"/>
<feComposite in2="hardAlpha" operator="out"/>
<feColorMatrix type="matrix" values="0 0 0 0 0 0 0 0 0 0 0 0 0 0 0 0 0 0 0.25 0"/>
<feBlend mode="normal" in2="BackgroundImageFix" result="effect1_dropShadow_282_800"/>
<feBlend mode="normal" in="SourceGraphic" in2="effect1_dropShadow_282_800" result="shape"/>
</filter>
<filter id="filter8_d_282_800" x="27.2423" y="21.0861" width="757.943" height="589.821" filterUnits="userSpaceOnUse" color-interpolation-filters="sRGB">
<feFlood flood-opacity="0" result="BackgroundImageFix"/>
<feColorMatrix in="SourceAlpha" type="matrix" values="0 0 0 0 0 0 0 0 0 0 0 0 0 0 0 0 0 0 127 0" result="hardAlpha"/>
<feOffset dy="4.47989"/>
<feGaussianBlur stdDeviation="2.23995"/>
<feComposite in2="hardAlpha" operator="out"/>
<feColorMatrix type="matrix" values="0 0 0 0 0 0 0 0 0 0 0 0 0 0 0 0 0 0 0.25 0"/>
<feBlend mode="normal" in2="BackgroundImageFix" result="effect1_dropShadow_282_800"/>
<feBlend mode="normal" in="SourceGraphic" in2="effect1_dropShadow_282_800" result="shape"/>
</filter>
<filter id="filter9_d_282_800" x="22.9332" y="21.323" width="766.565" height="589.352" filterUnits="userSpaceOnUse" color-interpolation-filters="sRGB">
<feFlood flood-opacity="0" result="BackgroundImageFix"/>
<feColorMatrix in="SourceAlpha" type="matrix" values="0 0 0 0 0 0 0 0 0 0 0 0 0 0 0 0 0 0 127 0" result="hardAlpha"/>
<feOffset dy="4.47989"/>
<feGaussianBlur stdDeviation="2.23995"/>
<feComposite in2="hardAlpha" operator="out"/>
<feColorMatrix type="matrix" values="0 0 0 0 0 0 0 0 0 0 0 0 0 0 0 0 0 0 0.25 0"/>
<feBlend mode="normal" in2="BackgroundImageFix" result="effect1_dropShadow_282_800"/>
<feBlend mode="normal" in="SourceGraphic" in2="effect1_dropShadow_282_800" result="shape"/>
</filter>
<filter id="filter10_d_282_800" x="28.2385" y="22.0803" width="755.904" height="587.875" filterUnits="userSpaceOnUse" color-interpolation-filters="sRGB">
<feFlood flood-opacity="0" result="BackgroundImageFix"/>
<feColorMatrix in="SourceAlpha" type="matrix" values="0 0 0 0 0 0 0 0 0 0 0 0 0 0 0 0 0 0 127 0" result="hardAlpha"/>
<feOffset dy="4.47989"/>
<feGaussianBlur stdDeviation="2.23995"/>
<feComposite in2="hardAlpha" operator="out"/>
<feColorMatrix type="matrix" values="0 0 0 0 0 0 0 0 0 0 0 0 0 0 0 0 0 0 0.25 0"/>
<feBlend mode="normal" in2="BackgroundImageFix" result="effect1_dropShadow_282_800"/>
<feBlend mode="normal" in="SourceGraphic" in2="effect1_dropShadow_282_800" result="shape"/>
</filter>
</defs>
</svg>
